<?xml version="1.0" encoding="UTF-8"?>
<svg version="1.1" xmlns="http://www.w3.org/2000/svg" width="1024" height="1024">
<path d="M0 0 C337.92 0 675.84 0 1024 0 C1024 337.92 1024 675.84 1024 1024 C686.08 1024 348.16 1024 0 1024 C0 686.08 0 348.16 0 0 Z " fill="#494949" transform="translate(0,0)"/>
<path d="M0 0 C337.92 0 675.84 0 1024 0 C1024 337.92 1024 675.84 1024 1024 C686.08 1024 348.16 1024 0 1024 C0 686.08 0 348.16 0 0 Z M369 62 C369 62.66 369 63.32 369 64 C368.2157666 63.99476318 367.4315332 63.98952637 366.62353516 63.98413086 C347.92974734 63.82993986 347.92974734 63.82993986 329.25 64.4375 C328.51346191 64.47673584 327.77692383 64.51597168 327.01806641 64.55639648 C323.72183032 64.51489108 323.72183032 64.51489108 321 66 C318.30764224 66.23678716 315.63501844 66.42198025 312.9375 66.5625 C311.79958008 66.62727539 311.79958008 66.62727539 310.63867188 66.69335938 C308.75934562 66.79973633 306.87969756 66.90039934 305 67 C305 67.66 305 68.32 305 69 C299.72 69 294.44 69 289 69 C289 69.66 289 70.32 289 71 C285.37 71 281.74 71 278 71 C278 71.66 278 72.32 278 73 C276.9275 72.938125 275.855 72.87625 274.75 72.8125 C268.9829774 72.79179256 263.48210397 74.30712629 258 76 C257.67 76.33 257.34 76.66 257 77 C254.67182036 77.36760731 252.3381615 77.70241581 250 78 C250 78.66 250 79.32 250 80 C248.35 80 246.7 80 245 80 C245 80.66 245 81.32 245 82 C239.555 82.495 239.555 82.495 234 83 C234 83.66 234 84.32 234 85 C233.28457031 84.95875 232.56914062 84.9175 231.83203125 84.875 C228.69180414 85.01360313 226.56788652 85.77103509 223.6875 87 C222.80449219 87.37125 221.92148438 87.7425 221.01171875 88.125 C220.34785156 88.41375 219.68398437 88.7025 219 89 C219 89.66 219 90.32 219 91 C217.68 91 216.36 91 215 91 C215 91.66 215 92.32 215 93 C214.29875 93.12375 213.5975 93.2475 212.875 93.375 C209.82343613 94.03838345 206.94659062 94.97211955 204 96 C204 96.66 204 97.32 204 98 C203.44828125 98.10828125 202.8965625 98.2165625 202.328125 98.328125 C195.11607728 100.40945421 186.90482997 105.33027773 181 110 C181 110.66 181 111.32 181 112 C180.443125 112.103125 179.88625 112.20625 179.3125 112.3125 C176.53150251 113.13928304 174.44799816 114.44761092 172 116 C171.071875 116.515625 170.14375 117.03125 169.1875 117.5625 C168.465625 118.036875 167.74375 118.51125 167 119 C167 119.66 167 120.32 167 121 C166.34 121 165.68 121 165 121 C164.67 122.32 164.34 123.64 164 125 C162.35 125 160.7 125 159 125 C158.938125 125.61875 158.87625 126.2375 158.8125 126.875 C158.544375 127.57625 158.27625 128.2775 158 129 C157.2575 129.28101563 156.515 129.56203125 155.75 129.8515625 C152.47131677 131.22078533 150.66474098 132.9693525 148.1875 135.5 C147.39730469 136.2940625 146.60710937 137.088125 145.79296875 137.90625 C143.78318627 139.7937618 143.78318627 139.7937618 144 142 C143.13761719 142.35384766 143.13761719 142.35384766 142.2578125 142.71484375 C139.50500395 144.28175381 137.91439244 146.14702188 135.875 148.5625 C132.19444444 152.90277778 132.19444444 152.90277778 130 154 C129.505 155.485 129.505 155.485 129 157 C128.360625 157.28875 127.72125 157.5775 127.0625 157.875 C124.26437885 159.4012479 124.07228626 161.06908422 123 164 C122 165 121 166 120 167 C120 167.99 120 168.98 120 170 C119.071875 170.4021875 119.071875 170.4021875 118.125 170.8125 C115.7004767 171.95556848 115.7004767 171.95556848 114 175 C114 175.99 114 176.98 114 178 C113.01 178.33 112.02 178.66 111 179 C109.55555855 180.4854406 109.55555855 180.4854406 108.3125 182.3125 C107.87550781 182.90675781 107.43851563 183.50101562 106.98828125 184.11328125 C105.690662 186.23557363 105.690662 186.23557363 106 190 C105.01 190.33 104.02 190.66 103 191 C101.76210765 192.7185433 101.76210765 192.7185433 100.8125 194.8125 C100.46832031 195.49957031 100.12414062 196.18664062 99.76953125 196.89453125 C98.77114557 199.2525399 98.77114557 199.2525399 99 203 C98.34 203 97.68 203 97 203 C96.32591692 204.26691507 95.66099503 205.53870749 95 206.8125 C94.62875 207.52019531 94.2575 208.22789062 93.875 208.95703125 C92.80314642 211.08920729 92.80314642 211.08920729 93 214 C92.34 214 91.68 214 91 214 C91 215.32 91 216.64 91 218 C90.34 218 89.68 218 89 218 C88.80664062 218.66386719 88.61328125 219.32773438 88.4140625 220.01171875 C87.11102361 224.43043974 85.77335465 228.74394884 84 233 C82.55829517 236.84454621 81.75799659 239.88594206 82 244 C81.34 244 80.68 244 80 244 C79.80664062 244.80824219 79.61328125 245.61648437 79.4140625 246.44921875 C79.15367188 247.51785156 78.89328125 248.58648437 78.625 249.6875 C78.36976562 250.74324219 78.11453125 251.79898438 77.8515625 252.88671875 C77 256 77 256 75.90625 258.65625 C74.68337307 261.81886275 74.8683831 264.64376915 75 268 C74.34 268 73.68 268 73 268 C73 270.97 73 273.94 73 277 C72.34 277 71.68 277 71 277 C70.202163 283.69613196 69.87089147 290.25766581 70 297 C69.34 297 68.68 297 68 297 C66.80809637 305.34332544 66.90716451 313.59323022 67 322 C66.34 322 65.68 322 65 322 C63.76208854 339.99392727 63.89797695 357.97488187 64 376 C63.34 376 62.68 376 62 376 C60.85028272 398.82885254 60.83564562 421.64264477 60.83274293 444.49423528 C60.83202126 447.7046133 60.82986598 450.9149873 60.82724571 454.1253643 C60.81802484 465.46028785 60.8139047 476.79519978 60.81469727 488.13012695 C60.8152249 497.33424651 60.80829291 506.53832305 60.79418945 515.74243164 C60.71147992 570.86236168 61.0442659 625.91098726 63 681 C63.66 681 64.32 681 65 681 C65 687.93 65 694.86 65 702 C65.66 702 66.32 702 67 702 C66.98839844 703.0621875 66.97679688 704.124375 66.96484375 705.21875 C66.8781229 715.64610915 66.8781229 715.64610915 68 726 C68.66 726 69.32 726 70 726 C69.98259766 727.06541016 69.98259766 727.06541016 69.96484375 728.15234375 C69.95582031 729.07144531 69.94679688 729.99054687 69.9375 730.9375 C69.92589844 731.85402344 69.91429688 732.77054688 69.90234375 733.71484375 C69.74050951 735.96593327 69.74050951 735.96593327 71 737 C71.23287008 738.68183948 71.41264166 740.3712416 71.5625 742.0625 C71.64628906 742.98160156 71.73007813 743.90070312 71.81640625 744.84765625 C71.87699219 745.55792969 71.93757813 746.26820313 72 747 C72.66 747 73.32 747 74 747 C73.979375 748.175625 73.95875 749.35125 73.9375 750.5625 C73.94585228 755.28989307 74.14259128 759.88505849 75.9375 764.3125 C77.10953418 767.27705704 77.87617615 770.21509225 78.625 773.3125 C79.01558594 774.91544922 79.01558594 774.91544922 79.4140625 776.55078125 C79.70410156 777.76314453 79.70410156 777.76314453 80 779 C80.66 779 81.32 779 82 779 C82 780.98 82 782.96 82 785 C82.66 785 83.32 785 84 785 C84.12375 786.19625 84.2475 787.3925 84.375 788.625 C84.82325054 792.27596813 85.70446837 795.54524899 87 799 C87.66 799 88.32 799 89 799 C89.12375 799.86625 89.2475 800.7325 89.375 801.625 C89.98058121 804.89513853 90.88306035 807.87256899 92 811 C92.66 811 93.32 811 94 811 C94.495 813.97 94.495 813.97 95 817 C95.66 817 96.32 817 97 817 C97.226875 817.763125 97.45375 818.52625 97.6875 819.3125 C100.99498694 828.97556396 100.99498694 828.97556396 107 837 C108.04622875 838.97620986 109.05439935 840.9737129 110 843 C110.66 843 111.32 843 112 843 C112 843.99 112 844.98 112 846 C112.66 846 113.32 846 114 846 C114 846.99 114 847.98 114 849 C114.66 849 115.32 849 116 849 C116.4021875 849.8353125 116.4021875 849.8353125 116.8125 850.6875 C118.10899496 853.21225334 119.42476323 855.63714484 121 858 C121.66 858 122.32 858 123 858 C123.3403125 859.423125 123.3403125 859.423125 123.6875 860.875 C124.66336372 864.20295295 124.66336372 864.20295295 127.5625 865.125 C128.366875 865.41375 129.17125 865.7025 130 866 C130.1019165 866.55719727 130.20383301 867.11439453 130.30883789 867.68847656 C131.36391587 871.21708069 133.93258033 873.33995741 136.49609375 875.859375 C137.04483658 876.40861633 137.59357941 876.95785767 138.15895081 877.52374268 C139.31795259 878.68040774 140.48063974 879.83339017 141.64672852 880.98291016 C143.43622264 882.74873953 145.21195318 884.52758608 146.98632812 886.30859375 C148.11379206 887.43048327 149.2420214 888.55160421 150.37109375 889.671875 C151.17117104 890.4733194 151.17117104 890.4733194 151.9874115 891.29095459 C154.52575887 894.1252476 154.52575887 894.1252476 158 895 C158 895.66 158 896.32 158 897 C159.36125 897.61875 159.36125 897.61875 160.75 898.25 C163.81627952 899.90107359 165.57528226 901.57528226 168 904 C168.99 904 169.98 904 171 904 C171.433125 904.928125 171.433125 904.928125 171.875 905.875 C172.93720042 908.13325765 172.93720042 908.13325765 175 910 C176.32 910 177.64 910 179 910 C179 910.66 179 911.32 179 912 C180.32 912.33 181.64 912.66 183 913 C183 913.66 183 914.32 183 915 C184.65 915.33 186.3 915.66 188 916 C188 916.66 188 917.32 188 918 C189.43294498 918.84114171 190.87154405 919.67265687 192.3125 920.5 C193.11300781 920.9640625 193.91351563 921.428125 194.73828125 921.90625 C197.0314118 923.21767886 197.0314118 923.21767886 200 923 C200 923.66 200 924.32 200 925 C201.43429001 925.67354499 202.87257057 926.33859701 204.3125 927 C205.11300781 927.37125 205.91351563 927.7425 206.73828125 928.125 C209.06213959 929.18040667 209.06213959 929.18040667 212 929 C212 929.66 212 930.32 212 931 C213.24663331 931.50833591 214.49749387 932.00631145 215.75 932.5 C216.44609375 932.7784375 217.1421875 933.056875 217.859375 933.34375 C220.26422695 934.19540327 220.26422695 934.19540327 224 934 C224 934.66 224 935.32 224 936 C225.65 936 227.3 936 229 936 C229 936.66 229 937.32 229 938 C230.65 938 232.3 938 234 938 C234 938.66 234 939.32 234 940 C235.65 940 237.3 940 239 940 C239 940.66 239 941.32 239 942 C240.98 942 242.96 942 245 942 C245 942.66 245 943.32 245 944 C246.65 944 248.3 944 250 944 C250 944.66 250 945.32 250 946 C256.06815522 947.22899346 261.79895188 948.27560214 268 948 C268 948.66 268 949.32 268 950 C268.71027344 950.06058594 269.42054688 950.12117187 270.15234375 950.18359375 C271.07144531 950.26738281 271.99054688 950.35117187 272.9375 950.4375 C273.85402344 950.51871094 274.77054688 950.59992187 275.71484375 950.68359375 C278 951 278 951 279 952 C280.68608966 952.07205511 282.37500659 952.08386068 284.0625 952.0625 C285.44115234 952.04896484 285.44115234 952.04896484 286.84765625 952.03515625 C287.55792969 952.02355469 288.26820313 952.01195312 289 952 C289 952.66 289 953.32 289 954 C298.0043334 955.2333063 306.94995755 956.24421842 316.03320312 956.65795898 C320.89968382 956.89968382 320.89968382 956.89968382 322 958 C323.41570123 958.08651611 324.835595 958.10704904 326.25390625 958.09765625 C327.10791016 958.09443359 327.96191406 958.09121094 328.84179688 958.08789062 C329.73962891 958.07951172 330.63746094 958.07113281 331.5625 958.0625 C332.46419922 958.05798828 333.36589844 958.05347656 334.29492188 958.04882812 C336.53001314 958.03700225 338.76497437 958.0205222 341 958 C341 958.66 341 959.32 341 960 C350.24 960 359.48 960 369 960 C369 960.66 369 961.32 369 962 C398.52330028 962.75664524 428.02565905 963.15399866 457.55837369 963.1343255 C462.75945148 963.13170942 467.96052794 963.13416408 473.16160583 963.13571167 C481.87816696 963.13750725 490.59471949 963.13519697 499.3112793 963.13037109 C509.24745802 963.12493191 519.1836162 963.12669943 529.11979443 963.1321975 C537.80500698 963.13680251 546.49021352 963.13734389 555.1754269 963.13475883 C560.29526951 963.13323607 565.41510262 963.13288702 570.53494453 963.13629532 C592.12068345 963.14865266 613.6955731 963.00344507 635.27709961 962.55419922 C636.27333064 962.5347872 637.26956167 962.51537518 638.29598153 962.49537492 C641.08276688 962.43970058 643.86929478 962.37706615 646.65586853 962.31173706 C647.49063418 962.29544148 648.32539983 962.2791459 649.1854614 962.26235652 C652.89844191 962.51200437 652.89844191 962.51200437 656 961 C657.99782126 960.84174742 660.00088834 960.74880829 662.00390625 960.68359375 C663.21884766 960.64169922 664.43378906 960.59980469 665.68554688 960.55664062 C666.96494141 960.51732422 668.24433594 960.47800781 669.5625 960.4375 C671.48739258 960.37272461 671.48739258 960.37272461 673.45117188 960.30664062 C676.63399853 960.200152 679.81690674 960.09814038 683 960 C683 959.34 683 958.68 683 958 C689.6 958 696.2 958 703 958 C703 957.34 703 956.68 703 956 C704.4540625 956.03480469 704.4540625 956.03480469 705.9375 956.0703125 C715.79376446 956.22896464 725.2552843 955.45134064 735 954 C735 953.34 735 952.68 735 952 C736.03447266 952.01740234 736.03447266 952.01740234 737.08984375 952.03515625 C743.15772652 952.09342124 748.98357396 951.78903948 755 951 C755 950.34 755 949.68 755 949 C758.63 948.67 762.26 948.34 766 948 C766 947.34 766 946.68 766 946 C768.31 946 770.62 946 773 946 C773 945.34 773 944.68 773 944 C774.98 944 776.96 944 779 944 C779 943.34 779 942.68 779 942 C780.051875 942.061875 780.051875 942.061875 781.125 942.125 C784.38371628 941.98331668 786.9559947 941.13265314 790 940 C790 939.34 790 938.68 790 938 C791.15886719 937.9071875 792.31773437 937.814375 793.51171875 937.71875 C798.09011298 937.1458203 801.72528547 935.56642927 805.8125 933.5 C812.83168058 930.05610647 812.83168058 930.05610647 816 929 C816 928.34 816 927.68 816 927 C816.6909375 926.90460937 817.381875 926.80921875 818.09375 926.7109375 C821.60634749 925.85167306 824.33833504 924.37573504 827.5 922.625 C829.15515625 921.71621094 829.15515625 921.71621094 830.84375 920.7890625 C837.17763328 917.27407717 837.17763328 917.27407717 843 913 C843 912.34 843 911.68 843 911 C843.99 911 844.98 911 846 911 C846 910.34 846 909.68 846 909 C846.78375 908.9175 847.5675 908.835 848.375 908.75 C849.24125 908.5025 850.1075 908.255 851 908 C851.69937532 906.68352881 852.36729133 905.34977849 853 904 C854.32796291 903.64587656 855.66216607 903.31478446 857 903 C857.66 902.34 858.32 901.68 859 901 C861.0819403 898.9180597 862.14458129 898.40791696 865 898 C865.33 896.68 865.66 895.36 866 894 C866.56984619 893.91838623 867.13969238 893.83677246 867.72680664 893.75268555 C870.72019332 892.7615341 872.15948216 891.19645281 874.37109375 888.95703125 C875.19287109 888.13009766 876.01464844 887.30316406 876.86132812 886.45117188 C877.71146484 885.58041016 878.56160156 884.70964844 879.4375 883.8125 C880.28376953 882.96107422 881.13003906 882.10964844 882.00195312 881.23242188 C886.21422885 876.96736901 890.22985423 872.65851345 894 868 C895.0828125 866.948125 895.0828125 866.948125 896.1875 865.875 C898.00025562 863.99973556 898.87791782 862.32431308 900 860 C900.66 859.67 901.32 859.34 902 859 C902 858.34 902 857.68 902 857 C902.66 857 903.32 857 904 857 C905.03789581 855.35666496 906.03567924 853.68756133 907 852 C907.66 851.34 908.32 850.68 909 850 C909 849.01 909 848.02 909 847 C909.66 847 910.32 847 911 847 C911 845.68 911 844.36 911 843 C912.32 842.34 913.64 841.68 915 841 C915 840.01 915 839.02 915 838 C915.66 838 916.32 838 917 838 C917 837.01 917 836.02 917 835 C917.66 835 918.32 835 919 835 C921.29045014 830.18790099 921.29045014 830.18790099 922 825 C922.66 825 923.32 825 924 825 C926.15381569 821.30774453 928.26191099 817.59696943 930.25 813.8125 C930.58515625 813.17957031 930.9203125 812.54664063 931.265625 811.89453125 C932.24095036 809.71704679 932.24095036 809.71704679 932 806 C932.66 806 933.32 806 934 806 C934.26554688 805.26394531 934.53109375 804.52789063 934.8046875 803.76953125 C935.15789063 802.79371094 935.51109375 801.81789063 935.875 800.8125 C936.39707031 799.36810547 936.39707031 799.36810547 936.9296875 797.89453125 C937.62311926 796.01922857 938.35295479 794.15683022 939.125 792.3125 C940.1016322 789.73140063 940.15638568 787.73674945 940 785 C940.66 785 941.32 785 942 785 C942 783.02 942 781.04 942 779 C942.66 779 943.32 779 944 779 C944 777.35 944 775.7 944 774 C944.66 774 945.32 774 946 774 C948.61117533 764.63433194 948.61117533 764.63433194 949 755 C949.66 755 950.32 755 951 755 C951 752.36 951 749.72 951 747 C951.66 747 952.32 747 953 747 C953.797837 740.30386804 954.12910853 733.74233419 954 727 C954.66 727 955.32 727 956 727 C957.19190363 718.65667456 957.09283549 710.40676978 957 702 C957.66 702 958.32 702 959 702 C960.14693838 683.99716362 960.10612327 666.02952768 960 648 C960.66 648 961.32 648 962 648 C962.79234828 618.84410059 963.15315364 589.71084512 963.1343255 560.54465342 C963.13171987 555.20708583 963.13416098 549.86951959 963.13571167 544.5319519 C963.13750802 535.59926028 963.13519265 526.66657705 963.13037109 517.73388672 C963.12490987 507.49979998 963.12671492 497.26573312 963.1321975 487.03164685 C963.13677392 478.12165794 963.13735796 469.21167492 963.13475883 460.30168521 C963.1332237 455.03306114 963.13292464 449.76444633 963.13629532 444.49582291 C963.14899251 421.64240694 963.00165432 398.83453612 962 376 C961.34 376 960.68 376 960 376 C960.00523682 375.07477539 960.01047363 374.14955078 960.01586914 373.19628906 C960.0997421 356.10319251 960.17389606 339.06341776 959 322 C958.34 322 957.68 322 957 322 C957.01740234 320.28490234 957.01740234 320.28490234 957.03515625 318.53515625 C957.04453288 317.04427246 957.05363321 315.55338691 957.0625 314.0625 C957.07087891 313.30775391 957.07925781 312.55300781 957.08789062 311.77539062 C957.09652441 309.85005687 957.05224333 307.92464419 957 306 C956.67 305.67 956.34 305.34 956 305 C955.51927228 301.36449664 955.12709309 297.72922849 954.75 294.08203125 C954.67249163 290.22157479 954.67249163 290.22157479 953 287 C952.76712992 285.31816052 952.58735834 283.6287584 952.4375 281.9375 C952.35371094 281.01839844 952.26992188 280.09929687 952.18359375 279.15234375 C952.12300781 278.44207031 952.06242188 277.73179687 952 277 C951.34 277 950.68 277 950 277 C950.01160156 276.443125 950.02320313 275.88625 950.03515625 275.3125 C950.09676433 270.10221657 949.74999344 265.1562049 949 260 C948.34 260 947.68 260 947 260 C946.67 256.7 946.34 253.4 946 250 C945.34 250 944.68 250 944 250 C944.061875 248.9790625 944.061875 248.9790625 944.125 247.9375 C943.97450035 244.40075832 943.05624147 241.36676967 942 238 C941.34 238 940.68 238 940 238 C939.33333333 234.66666667 938.66666667 231.33333333 938 228 C937.34 228 936.68 228 936 228 C936.061875 227.278125 936.12375 226.55625 936.1875 225.8125 C935.96252189 222.4378284 934.80571505 220.81691548 933 218 C932.3125 215.6875 932.3125 215.6875 932 214 C931.34 214 930.68 214 930 214 C930 212.68 930 211.36 930 210 C929.34 210 928.68 210 928 210 C927.814375 208.2984375 927.814375 208.2984375 927.625 206.5625 C927.41875 205.386875 927.2125 204.21125 927 203 C926.34 202.67 925.68 202.34 925 202 C924.26859972 200.33772664 923.54315827 198.67228432 922.86328125 196.98828125 C921.49543302 193.83789776 919.74809361 190.95367541 918 188 C917.34 188 916.68 188 916 188 C915.8453125 187.195625 915.8453125 187.195625 915.6875 186.375 C914.81907303 183.37497956 913.44379704 180.7620465 912 178 C911.34 178 910.68 178 910 178 C909.87625 177.13375 909.87625 177.13375 909.75 176.25 C908.7871014 173.36130421 907.17271168 172.10880839 905 170 C904.505 169.13375 904.01 168.2675 903.5 167.375 C902.21459279 164.86840217 902.21459279 164.86840217 899.875 164 C898.946875 163.505 898.946875 163.505 898 163 C897.855625 162.236875 897.71125 161.47375 897.5625 160.6875 C896.80280067 157.05782541 894.59108195 155.46464739 892 153 C890.8721534 151.87785382 889.74730843 150.75268514 888.625 149.625 C888.03203125 149.03203125 887.4390625 148.4390625 886.828125 147.828125 C884.1015625 145.1015625 884.1015625 145.1015625 881.375 142.375 C880.79919189 141.79991699 880.22338379 141.22483398 879.63012695 140.63232422 C878.17914684 139.17938832 876.73552959 137.7191079 875.29296875 136.2578125 C872.8210838 133.82382698 870.22991341 131.62764515 867.55078125 129.4296875 C866 128 866 128 864 125 C863.175 124.505 862.35 124.01 861.5 123.5 C859 122 859 122 857 119 C855.68 119 854.36 119 853 119 C852.7525 118.401875 852.505 117.80375 852.25 117.1875 C850.79509261 114.64141207 849.52050729 113.48265135 847 112 C845.68 112 844.36 112 843 112 C843 111.34 843 110.68 843 110 C841.68 109.67 840.36 109.34 839 109 C839 108.34 839 107.68 839 107 C837.68 107 836.36 107 835 107 C834.67 106.01 834.34 105.02 834 104 C830.30414334 101.78248601 828.36991627 101 824 101 C824 100.34 824 99.68 824 99 C819.7362719 96.64089647 819.7362719 96.64089647 815 96 C815 95.34 815 94.68 815 94 C812.09399739 92.74335022 810.20395416 92 807 92 C807 91.34 807 90.68 807 90 C803.04 89.505 803.04 89.505 799 89 C799 88.34 799 87.68 799 87 C797.68 87 796.36 87 795 87 C795 86.34 795 85.68 795 85 C793.35 85 791.7 85 790 85 C790 84.34 790 83.68 790 83 C781.65965495 80.40724862 781.65965495 80.40724862 773 80 C773 79.34 773 78.68 773 78 C770.36 78 767.72 78 765 78 C765 77.34 765 76.68 765 76 C762.36 76 759.72 76 757 76 C757 75.01 757 74.02 757 73 C753.37 73 749.74 73 746 73 C746 72.34 746 71.68 746 71 C742.37 71 738.74 71 735 71 C735 70.34 735 69.68 735 69 C729.39 69 723.78 69 718 69 C718 68.34 718 67.68 718 67 C712.72 67 707.44 67 702 67 C702 66.34 702 65.68 702 65 C686.66089646 63.95372741 671.37051459 63.88795745 656 64 C656 63.34 656 62.68 656 62 C626.10971279 61.25320775 596.23962144 60.84572783 566.34023237 60.8656745 C561.14182972 60.86829248 555.94342839 60.86583547 550.74502563 60.86428833 C542.03444086 60.86249342 533.3238647 60.86480135 524.61328125 60.86962891 C514.68446614 60.87506969 504.75567159 60.87329913 494.82685697 60.8678025 C486.14587051 60.86319758 477.46489006 60.86265601 468.78390276 60.86524117 C463.66742851 60.86676376 458.55096376 60.86711347 453.4344902 60.86370468 C425.27683336 60.8474244 397.1479821 61.25974874 369 62 Z " fill="#000000" transform="translate(0,0)"/>
<path d="M0 0 C34.216875 -0.0309375 34.216875 -0.0309375 69.125 -0.0625 C79.89729248 -0.07615601 79.89729248 -0.07615601 90.88720703 -0.09008789 C99.71069336 -0.09460449 99.71069336 -0.09460449 103.85177612 -0.09544373 C106.72116888 -0.09636892 109.59054282 -0.10009045 112.45993042 -0.10557556 C116.13660864 -0.1125092 119.81326007 -0.11447755 123.48994422 -0.11307228 C125.45359701 -0.11350229 127.41724695 -0.11882661 129.3808918 -0.12442875 C137.635915 -0.11491144 145.77473727 0.30857984 154 1 C154 1.66 154 2.32 154 3 C155.3303125 2.9071875 155.3303125 2.9071875 156.6875 2.8125 C168.88415998 2.93471102 178.7610599 8.01118598 189 14 C189.969375 14.53625 190.93875 15.0725 191.9375 15.625 C192.618125 16.07875 193.29875 16.5325 194 17 C194 17.66 194 18.32 194 19 C194.56203125 19.23847656 195.1240625 19.47695313 195.703125 19.72265625 C198.50521414 21.28096092 200.47893407 23.17756675 202.75 25.4375 C203.54921875 26.21996094 204.3484375 27.00242187 205.171875 27.80859375 C207 30 207 30 207 33 C207.66 33 208.32 33 209 33 C209.66 35.31 210.32 37.62 211 40 C211.66 40 212.32 40 213 40 C216.44419134 49.41002278 216.44419134 49.41002278 216 54 C216.66 54 217.32 54 218 54 C218.0499542 57.96521085 218.08597787 61.93029631 218.10986328 65.89575195 C218.12470245 67.89736377 218.15013361 69.89888812 218.17578125 71.90039062 C218.22580737 81.83057603 217.23024137 89.96266616 213 99 C212.34 99 211.68 99 211 99 C210.814375 99.804375 210.62875 100.60875 210.4375 101.4375 C207.68687444 108.25426769 202.48420268 114.14256334 197 119 C196.34 119 195.68 119 195 119 C195 119.66 195 120.32 195 121 C193.82630859 121.61488281 193.82630859 121.61488281 192.62890625 122.2421875 C191.61699219 122.78101563 190.60507812 123.31984375 189.5625 123.875 C188.55316406 124.40867187 187.54382813 124.94234375 186.50390625 125.4921875 C183.89859558 126.75654114 183.89859558 126.75654114 183 129 C185.43918247 129.99037728 187.87377294 130.95590412 190.359375 131.82421875 C196.91297596 134.19079687 201.74836891 137.4686447 207 142 C207.845625 142.71285156 208.69125 143.42570313 209.5625 144.16015625 C214.22280181 148.17238484 214.22280181 148.17238484 216 150 C216 150.66 216 151.32 216 152 C216.66 152 217.32 152 218 152 C218.433125 152.928125 218.86625 153.85625 219.3125 154.8125 C220.73380488 157.88156649 220.73380488 157.88156649 222.46875 159.453125 C224.16575675 161.16744814 225.10940909 162.78544879 226.1875 164.9375 C226.53167969 165.60652344 226.87585938 166.27554688 227.23046875 166.96484375 C228 169 228 169 228 173 C228.66 173 229.32 173 230 173 C231.14084698 179.39786989 231.18362675 185.69980385 231.1875 192.1875 C231.19974609 193.24775391 231.21199219 194.30800781 231.22460938 195.40039062 C231.26014393 214.83779026 225.47332041 228.98356383 212.01953125 243.07421875 C207.47738683 247.41183884 202.47037248 250.75160417 197.125 254 C196.47007568 254.39840088 195.81515137 254.79680176 195.14038086 255.20727539 C190.38343377 258 190.38343377 258 187 258 C187 258.66 187 259.32 187 260 C177.75152894 263.73495947 168.20231569 266.02245706 158.34484863 267.49710083 C156.23069504 267.81496457 154.11951469 268.15395447 152.0135498 268.52218628 C137.84005521 270.70347608 123.51316208 270.25784957 109.2130127 270.20256042 C105.74193983 270.19102935 102.27089698 270.19062662 98.79980469 270.18920898 C88.69985249 270.1787833 78.59992447 270.15086086 68.5 270.125 C45.895 270.08375 23.29 270.0425 0 270 C0 180.9 0 91.8 0 0 Z " fill="#FCFCFC" transform="translate(289,377)"/>
<path d="M0 0 C0.91024933 -0.00133942 1.82049866 -0.00267883 2.7583313 -0.00405884 C18.88818952 0.00109237 34.22680742 0.73977416 49.71801758 5.53442383 C52.68401402 6.43969672 55.6753399 7.20197253 58.6875 7.9375 C59.71101562 8.18886719 60.73453125 8.44023437 61.7890625 8.69921875 C62.53929687 8.88097656 63.28953125 9.06273437 64.0625 9.25 C64.0625 9.91 64.0625 10.57 64.0625 11.25 C64.743125 11.37375 65.42375 11.4975 66.125 11.625 C69.4902412 12.34100877 72.76263425 13.27945125 76.0625 14.25 C76.0625 14.91 76.0625 15.57 76.0625 16.25 C77.3825 16.25 78.7025 16.25 80.0625 16.25 C80.0625 16.91 80.0625 17.57 80.0625 18.25 C80.59875 18.353125 81.135 18.45625 81.6875 18.5625 C86.52798674 19.96369353 90.79871018 22.61648276 95.0625 25.25 C94.7325 27.56 94.4025 29.87 94.0625 32.25 C93.4025 32.25 92.7425 32.25 92.0625 32.25 C91.95550781 32.92417969 91.84851563 33.59835937 91.73828125 34.29296875 C90.92108752 37.86878177 89.63175979 41.17693358 88.25 44.5625 C87.98155273 45.22894531 87.71310547 45.89539063 87.43652344 46.58203125 C86.02430516 50.04577142 84.53977292 53.43233239 82.8125 56.75 C81.04463926 60.28572149 80.01594622 63.43621511 79.0625 67.25 C78.4025 67.25 77.7425 67.25 77.0625 67.25 C76.7325 69.23 76.4025 71.21 76.0625 73.25 C72.74484868 72.60909009 70.40495411 71.36745836 67.5625 69.5625 C60.08815304 64.97395859 52.44997485 60.88039152 44.0625 58.25 C44.0625 57.59 44.0625 56.93 44.0625 56.25 C43.19753906 56.28867187 42.33257813 56.32734375 41.44140625 56.3671875 C36.92138736 56.21042384 33.20825366 54.79485648 28.96484375 53.3203125 C18.83505221 50.26776764 8.37350632 49.93127001 -2.125 50 C-3.31802734 49.99226563 -4.51105469 49.98453125 -5.74023438 49.9765625 C-18.65873689 49.85034356 -18.65873689 49.85034356 -29.9375 55.25 C-30.741875 55.559375 -31.54625 55.86875 -32.375 56.1875 C-37.71156153 58.40022064 -40.82856288 61.6711787 -43.21484375 66.83984375 C-45.32807521 73.88775622 -44.41670375 81.43218967 -41.9375 88.25 C-41.2775 88.25 -40.6175 88.25 -39.9375 88.25 C-39.9375 88.91 -39.9375 89.57 -39.9375 90.25 C-39.35097656 90.54132813 -38.76445313 90.83265625 -38.16015625 91.1328125 C-36.82813891 91.80233264 -35.50080048 92.48147992 -34.18359375 93.1796875 C-29.43958037 95.65927981 -24.6006488 97.55176265 -19.55078125 99.3203125 C-17.7798167 99.95034174 -16.02294754 100.6212007 -14.28125 101.328125 C-11.84602625 102.28597967 -9.51200466 102.80865634 -6.9375 103.25 C-6.9375 103.91 -6.9375 104.57 -6.9375 105.25 C-5.63425781 105.32347656 -5.63425781 105.32347656 -4.3046875 105.3984375 C-3.15226563 105.47320312 -1.99984375 105.54796875 -0.8125 105.625 C0.32445312 105.69460938 1.46140625 105.76421875 2.6328125 105.8359375 C6.03942509 106.24721419 8.84613632 107.08477734 12.0625 108.25 C13.70488064 108.70028819 15.35081033 109.13782715 17 109.5625 C22.25510964 110.97293133 27.39998412 112.6575504 32.55078125 114.40234375 C37.6878335 116.13940884 42.85389987 117.74256985 48.0625 119.25 C48.0625 119.91 48.0625 120.57 48.0625 121.25 C48.743125 121.37375 49.42375 121.4975 50.125 121.625 C53.4902412 122.34100877 56.76263425 123.27945125 60.0625 124.25 C60.0625 124.91 60.0625 125.57 60.0625 126.25 C60.92875 126.4665625 60.92875 126.4665625 61.8125 126.6875 C63.89583333 127.20833333 65.97916667 127.72916667 68.0625 128.25 C68.0625 128.91 68.0625 129.57 68.0625 130.25 C68.77277344 130.50007812 69.48304688 130.75015625 70.21484375 131.0078125 C73.36849286 132.38347837 75.85724872 134.08479391 78.625 136.125 C80.01912109 137.14207031 80.01912109 137.14207031 81.44140625 138.1796875 C83.85021146 140.08232053 86.02322664 141.95641725 88.0625 144.25 C88.0625 144.91 88.0625 145.57 88.0625 146.25 C88.7225 146.25 89.3825 146.25 90.0625 146.25 C95.0625 151.60714286 95.0625 151.60714286 95.0625 155.25 C96.0525 155.58 97.0425 155.91 98.0625 156.25 C99.125 158.2890625 99.125 158.2890625 100.0625 160.875 C101.21176562 163.96612822 102.37271753 167.00357081 103.75 170 C106.52076276 176.86093637 106.21424647 183.77408601 106.1875 191.0625 C106.19136719 192.10470703 106.19523438 193.14691406 106.19921875 194.22070312 C106.19156937 200.31343653 105.85787332 206.20895028 105.0625 212.25 C104.4025 212.25 103.7425 212.25 103.0625 212.25 C103.02511719 212.83007812 102.98773437 213.41015625 102.94921875 214.0078125 C102.51981797 219.11010412 101.59292556 222.71632088 99.0625 227.25 C98.37613375 229.48525035 98.37613375 229.48525035 98.0625 231.25 C97.4025 231.25 96.7425 231.25 96.0625 231.25 C95.815 231.971875 95.5675 232.69375 95.3125 233.4375 C93.95113197 236.50057808 92.17266723 238.66334339 90.0625 241.25 C89.7325 242.24 89.4025 243.23 89.0625 244.25 C69.37830783 265.0394543 38.92254866 275.27196862 10.875 276.5625 C-9.69174154 277.03006103 -30.8469529 275.33656383 -50.890625 270.69140625 C-53.88979844 270.04463793 -56.89494286 269.63841155 -59.9375 269.25 C-59.9375 268.59 -59.9375 267.93 -59.9375 267.25 C-61.13375 267.12625 -62.33 267.0025 -63.5625 266.875 C-69.51863398 266.11219688 -74.36550764 264.07423148 -79.640625 261.32421875 C-83.21755519 259.65133473 -86.95814212 258.48134854 -90.71484375 257.27734375 C-91.44832031 256.93832031 -92.18179688 256.59929687 -92.9375 256.25 C-93.2675 255.26 -93.5975 254.27 -93.9375 253.25 C-95.57576974 252.51631445 -97.25031515 251.86288621 -98.9375 251.25 C-101.04123475 250.14206863 -103.12421857 248.99405895 -105.1875 247.8125 C-106.77304687 246.91724609 -106.77304687 246.91724609 -108.390625 246.00390625 C-110.9375 244.25 -110.9375 244.25 -111.9375 241.25 C-111 238.0625 -111 238.0625 -109.9375 235.25 C-109.2775 235.25 -108.6175 235.25 -107.9375 235.25 C-107.9375 233.6 -107.9375 231.95 -107.9375 230.25 C-107.2775 230.25 -106.6175 230.25 -105.9375 230.25 C-105.84339844 229.73179687 -105.74929688 229.21359375 -105.65234375 228.6796875 C-104.49117816 224.73299353 -102.448192 221.1931826 -100.55273438 217.55859375 C-98.65671885 213.86276646 -97.14660356 210.22363684 -95.9375 206.25 C-95.2775 206.25 -94.6175 206.25 -93.9375 206.25 C-93.81375 205.54875 -93.69 204.8475 -93.5625 204.125 C-92.89911655 201.07343613 -91.96538045 198.19659062 -90.9375 195.25 C-86.74389551 195.92097672 -83.53415648 198.1058394 -79.9375 200.25 C-79.9375 200.91 -79.9375 201.57 -79.9375 202.25 C-77.28521188 203.32525194 -74.65381546 204.34456151 -71.9375 205.25 C-71.9375 205.91 -71.9375 206.57 -71.9375 207.25 C-68.9675 207.91 -65.9975 208.57 -62.9375 209.25 C-62.9375 209.91 -62.9375 210.57 -62.9375 211.25 C-60.6275 211.91 -58.3175 212.57 -55.9375 213.25 C-55.9375 213.91 -55.9375 214.57 -55.9375 215.25 C-54.6175 215.25 -53.2975 215.25 -51.9375 215.25 C-51.9375 215.91 -51.9375 216.57 -51.9375 217.25 C-50.7 217.394375 -49.4625 217.53875 -48.1875 217.6875 C-45.37245501 218.03688502 -42.6673503 218.45379366 -39.9375 219.25 C-39.9375 219.91 -39.9375 220.57 -39.9375 221.25 C-39.091875 221.37117187 -38.24625 221.49234375 -37.375 221.6171875 C-35.6734375 221.86855469 -35.6734375 221.86855469 -33.9375 222.125 C-32.82375 222.28742188 -31.71 222.44984375 -30.5625 222.6171875 C-26.9375 223.25 -26.9375 223.25 -23.25244141 224.27514648 C-18.88179319 225.37838643 -14.76320071 225.52352871 -10.2734375 225.48046875 C-9.07988144 225.47978142 -9.07988144 225.47978142 -7.86221313 225.4790802 C-6.19328301 225.47608026 -4.52435512 225.46826251 -2.85546875 225.45581055 C-0.3123983 225.43749927 2.23030779 225.43530168 4.7734375 225.43554688 C6.40364896 225.43063232 8.03385797 225.42480427 9.6640625 225.41796875 C10.41732819 225.41685593 11.17059387 225.4157431 11.94668579 225.41459656 C16.08572931 225.37763821 20.00120512 225.05320539 24.0625 224.25 C24.0625 223.59 24.0625 222.93 24.0625 222.25 C26.04817708 221.76171875 28.03385417 221.2734375 30.01953125 220.78515625 C31.71933202 220.33989295 33.39551954 219.80566015 35.0625 219.25 C35.0625 218.59 35.0625 217.93 35.0625 217.25 C35.990625 216.528125 36.91875 215.80625 37.875 215.0625 C41.23976254 212.3102356 43.13406668 209.52079327 44.0625 205.25 C44.69380956 198.72646791 44.98016 192.78876069 41.0625 187.25 C33.50882871 178.32293393 23.20847747 172.92503459 12.0625 170.25 C12.0625 169.59 12.0625 168.93 12.0625 168.25 C10.92425781 168.13914062 9.78601563 168.02828125 8.61328125 167.9140625 C3.96699161 167.32958513 -0.30166002 166.05046784 -4.75 164.625 C-14.24806142 161.67221122 -23.83118731 159.14118846 -33.47192383 156.69873047 C-40.01265917 155.03572457 -46.49299255 153.25517956 -52.9375 151.25 C-52.9375 150.59 -52.9375 149.93 -52.9375 149.25 C-55.9075 148.59 -58.8775 147.93 -61.9375 147.25 C-61.9375 146.59 -61.9375 145.93 -61.9375 145.25 C-62.64648438 145.15589844 -63.35546875 145.06179688 -64.0859375 144.96484375 C-67.4379091 144.12455498 -69.68692313 142.7176687 -72.5625 140.8125 C-73.50351562 140.19503906 -74.44453125 139.57757812 -75.4140625 138.94140625 C-76.24679687 138.38324219 -77.07953125 137.82507813 -77.9375 137.25 C-78.9275 136.59 -79.9175 135.93 -80.9375 135.25 C-80.9375 134.59 -80.9375 133.93 -80.9375 133.25 C-81.53820312 133.146875 -82.13890625 133.04375 -82.7578125 132.9375 C-89.03715044 130.95692029 -93.81866617 121.68030996 -96.9375 116.25 C-96.9375 115.59 -96.9375 114.93 -96.9375 114.25 C-97.5975 114.25 -98.2575 114.25 -98.9375 114.25 C-99.75772612 111.89828157 -100.5687654 109.5440149 -101.375 107.1875 C-101.60509766 106.53072266 -101.83519531 105.87394531 -102.07226562 105.19726562 C-108.13949863 87.34729027 -106.53974431 64.37534039 -98.9375 47.25 C-97.43359375 44.43359375 -97.43359375 44.43359375 -95.9375 42.25 C-95.2775 42.25 -94.6175 42.25 -93.9375 42.25 C-93.6075 40.6 -93.2775 38.95 -92.9375 37.25 C-92.2775 37.25 -91.6175 37.25 -90.9375 37.25 C-90.8250293 36.65074707 -90.71255859 36.05149414 -90.59667969 35.43408203 C-89.52318954 31.87725133 -86.77921077 29.66117411 -84.1875 27.125 C-83.6615625 26.58746094 -83.135625 26.04992187 -82.59375 25.49609375 C-79.58044959 22.50516933 -77.09860213 20.49833064 -72.9375 19.25 C-72.9375 18.59 -72.9375 17.93 -72.9375 17.25 C-70.6275 16.59 -68.3175 15.93 -65.9375 15.25 C-65.9375 14.59 -65.9375 13.93 -65.9375 13.25 C-64.9475 13.25 -63.9575 13.25 -62.9375 13.25 C-62.9375 12.59 -62.9375 11.93 -62.9375 11.25 C-60.2975 10.92 -57.6575 10.59 -54.9375 10.25 C-54.9375 9.59 -54.9375 8.93 -54.9375 8.25 C-49.69723256 6.44301123 -44.42837756 4.73779185 -39.125 3.125 C-38.04605469 2.79242188 -36.96710938 2.45984375 -35.85546875 2.1171875 C-24.33548114 -0.75936672 -11.79584224 0.0102421 0 0 Z " fill="#FCFCFB" transform="translate(634.9375,372.75)"/>
<path d="M0 0 C18.56592219 -0.08021762 18.56592219 -0.08021762 26.52734375 -0.09765625 C31.94323687 -0.10957573 37.35906186 -0.12362167 42.77490234 -0.15087891 C47.14507414 -0.17273383 51.51517279 -0.18459511 55.88539505 -0.18975449 C57.5462115 -0.19342766 59.20702429 -0.20059998 60.8678093 -0.21146011 C81.32042132 -0.33978934 81.32042132 -0.33978934 88 3 C88 3.66 88 4.32 88 5 C88.680625 5.0825 89.36125 5.165 90.0625 5.25 C97.7527431 7.21346632 101.15158191 10.99018137 105.51953125 17.3671875 C108.75276184 23.11704876 109.31755163 28.1169489 109.25 34.5625 C109.26160156 35.6752832 109.26160156 35.6752832 109.2734375 36.81054688 C109.25854885 40.99053418 108.90517475 44.18209028 107 48 C106.34 48 105.68 48 105 48 C104.814375 48.8971875 104.814375 48.8971875 104.625 49.8125 C104 52 104 52 102 55 C101.34 55 100.68 55 100 55 C100 55.66 100 56.32 100 57 C88.79464958 63.26121751 80.4303204 67.13563292 67.32055664 67.11352539 C66.58801666 67.11367142 65.85547668 67.11381744 65.10073853 67.1139679 C62.70384657 67.11327686 60.30703446 67.10552276 57.91015625 67.09765625 C56.23864281 67.09578919 54.56712881 67.09436665 52.89561462 67.09336853 C48.51445991 67.08956603 44.13333879 67.07975529 39.75219727 67.06866455 C34.48576298 67.05659434 29.21931741 67.05203739 23.95287323 67.04621124 C15.96855885 67.03654218 7.98431806 67.0173698 0 67 C0 44.89 0 22.78 0 0 Z " fill="#454545" transform="translate(350,531)"/>
<path d="M0 0 C17.10863545 -0.12032643 17.10863545 -0.12032643 24.44335938 -0.14648438 C29.43361063 -0.16436601 34.42369557 -0.18544087 39.41381836 -0.22631836 C43.44035214 -0.25909322 47.46670738 -0.27689092 51.49336433 -0.28463173 C53.02384308 -0.2901429 54.55431288 -0.30090435 56.08471489 -0.31719017 C69.35007951 -0.45264406 79.87428926 1.29099238 89.828125 10.734375 C95.54006731 17.00087481 96.31358214 23.02148118 96.1875 31.25 C96.1865332 32.47203125 96.1865332 32.47203125 96.18554688 33.71875 C96.14084821 39.71830357 96.14084821 39.71830357 95 42 C94.34 42 93.68 42 93 42 C92.979375 42.70125 92.95875 43.4025 92.9375 44.125 C91.56619691 48.33032949 88.65259253 50.61031214 85 53 C82.76953125 53.671875 82.76953125 53.671875 81 54 C81 54.66 81 55.32 81 56 C71.5454293 59.96603488 62.82669244 60.53755146 52.734375 60.390625 C51.20453641 60.38314489 49.67468811 60.37746035 48.14483643 60.37347412 C44.15969388 60.35835661 40.17515435 60.31919913 36.19024658 60.2746582 C31.38686073 60.22612095 26.58327084 60.20810513 21.77970886 60.18484497 C14.51938926 60.14633573 7.26038714 60.06958838 0 60 C0 40.2 0 20.4 0 0 Z " fill="#484848" transform="translate(350,425)"/>
<path d="M0 0 C0.66 0 1.32 0 2 0 C2.51046875 1.17755859 2.51046875 1.17755859 3.03125 2.37890625 C8.05320028 13.26425062 13.78827324 18.82155554 25 23 C25 23.66 25 24.32 25 25 C24.21496094 25.3403125 23.42992187 25.680625 22.62109375 26.03125 C11.73574938 31.05320028 6.17844446 36.78827324 2 48 C1.34 48 0.68 48 0 48 C-0.3403125 47.21496094 -0.680625 46.42992187 -1.03125 45.62109375 C-6.05320028 34.73574938 -11.78827324 29.17844446 -23 25 C-23 24.34 -23 23.68 -23 23 C-22.21496094 22.6596875 -21.42992187 22.319375 -20.62109375 21.96875 C-9.73574938 16.94679972 -4.17844446 11.21172676 0 0 Z " fill="#7D7D7D" transform="translate(967,944)"/>
<path d="M0 0 C18.56592219 -0.08021762 18.56592219 -0.08021762 26.52734375 -0.09765625 C31.94323687 -0.10957573 37.35906186 -0.12362167 42.77490234 -0.15087891 C47.14507414 -0.17273383 51.51517279 -0.18459511 55.88539505 -0.18975449 C57.5462115 -0.19342766 59.20702429 -0.20059998 60.8678093 -0.21146011 C79.43939223 -0.32798689 79.43939223 -0.32798689 86 2 C86.99 2.99 86.99 2.99 88 4 C87.04077637 3.86042877 86.08155273 3.72085754 85.09326172 3.57705688 C75.07159426 2.18353182 65.23405914 1.66521422 55.125 1.5859375 C53.5784408 1.56716007 52.03189113 1.54758219 50.48535156 1.5272522 C46.47430123 1.47661748 42.46321791 1.43663144 38.45202637 1.39910889 C33.60744001 1.3514758 28.7630083 1.29018159 23.91854858 1.23126221 C16.61243055 1.14389062 9.30632936 1.07352768 2 1 C2 22.12 2 43.24 2 65 C15.87016958 64.85095135 15.87016958 64.85095135 29.74023438 64.69335938 C35.39995822 64.6271584 41.05968106 64.56194279 46.71948242 64.50268555 C51.28420093 64.45483076 55.84884808 64.40248151 60.41348076 64.34705925 C62.15210625 64.326731 63.89075123 64.30800276 65.6294117 64.29092598 C68.0708022 64.26666966 70.51206046 64.23664602 72.95336914 64.20532227 C73.66691055 64.1995668 74.38045197 64.19381134 75.11561584 64.18788147 C79.50746252 64.12412886 83.67613387 63.7028316 88 63 C79.37631032 68.74912645 67.58281652 67.26137702 57.6171875 67.1953125 C55.94996308 67.19157544 54.28273645 67.18873175 52.61550903 67.18673706 C48.25901059 67.17915512 43.90264867 67.15955433 39.54620361 67.1373291 C34.30224427 67.11312529 29.05823889 67.10406375 23.8142395 67.09242249 C15.87606515 67.073126 7.93818947 67.03476579 0 67 C0 44.89 0 22.78 0 0 Z " fill="#828282" transform="translate(350,531)"/>
<path d="M0 0 C2.625 0.25 2.625 0.25 4.375 1.5625 C5.625 3.25 5.625 3.25 6.625 6.25 C7.945 4.27 9.265 2.29 10.625 0.25 C12.935 0.58 15.245 0.91 17.625 1.25 C17.955 2.57 18.285 3.89 18.625 5.25 C16.315 4.92 14.005 4.59 11.625 4.25 C11.625 4.91 11.625 5.57 11.625 6.25 C12.40875 6.37375 13.1925 6.4975 14 6.625 C16.625 7.25 16.625 7.25 18.625 9.25 C18.17045455 14.70454545 18.17045455 14.70454545 15.625 17.25 C13.30224823 17.65047444 10.96760643 17.9897104 8.625 18.25 C8.295 17.59 7.965 16.93 7.625 16.25 C7.295 16.58 6.965 16.91 6.625 17.25 C4.77212498 17.32226502 2.91666122 17.3338122 1.0625 17.3125 C0.05058594 17.30347656 -0.96132813 17.29445313 -2.00390625 17.28515625 C-2.78636719 17.27355469 -3.56882812 17.26195312 -4.375 17.25 C-3.54968252 12.89832601 -1.18650756 10.62380907 1.625 7.25 C2.47779338 5.03264561 2.47779338 5.03264561 2.625 3.25 C0.975 3.25 -0.675 3.25 -2.375 3.25 C-2.375 3.91 -2.375 4.57 -2.375 5.25 C-3.035 5.25 -3.695 5.25 -4.375 5.25 C-3.26717391 0.34391304 -3.26717391 0.34391304 0 0 Z " fill="#5E5D5D" transform="translate(576.375,918.75)"/>
<path d="M0 0 C8.26698451 -0.60786651 8.26698451 -0.60786651 11.5625 2.125 C13.24406942 5.48813884 13.54146969 7.28706501 13 11 C10.73529412 15.63235294 10.73529412 15.63235294 8 17 C5.36 17 2.72 17 0 17 C0 11.39 0 5.78 0 0 Z " fill="#D1D1D1" transform="translate(406,919)"/>
<path d="M0 0 C1.32 0 2.64 0 4 0 C4.50403768 1.29009643 5.00309926 2.58213789 5.5 3.875 C5.7784375 4.59429688 6.056875 5.31359375 6.34375 6.0546875 C7 8 7 8 7 10 C7.66 10 8.32 10 9 10 C9.66 7.03 10.32 4.06 11 1 C12.65 0.67 14.3 0.34 16 0 C16 5.61 16 11.22 16 17 C14.68 16.67 13.36 16.34 12 16 C11.67 14.68 11.34 13.36 11 12 C10.67 13.65 10.34 15.3 10 17 C8.68 16.67 7.36 16.34 6 16 C5.34 13.69 4.68 11.38 4 9 C3.67 11.64 3.34 14.28 3 17 C2.01 17 1.02 17 0 17 C0 11.39 0 5.78 0 0 Z " fill="#C2C3C4" transform="translate(673,919)"/>
<path d="M0 0 C-0.33 0.99 -0.66 1.98 -1 3 C-5.95 3 -10.9 3 -16 3 C-16 3.66 -16 4.32 -16 5 C-64.18 5 -112.36 5 -162 5 C-162 4.67 -162 4.34 -162 4 C-161.30206707 3.99761165 -160.60413414 3.99522329 -159.88505173 3.99276257 C-142.81199975 3.93332838 -125.73909533 3.85760036 -108.66619492 3.76428509 C-100.40947506 3.71953923 -92.1527963 3.68007729 -83.89599609 3.65356445 C-76.68970167 3.63041085 -69.48353967 3.59682389 -62.27735066 3.55129844 C-58.47049277 3.52759715 -54.6637641 3.50871879 -50.85683441 3.50238609 C-35.93527991 3.47448246 -21.26077499 3.34178299 -6.53033447 0.63825989 C-3 0 -3 0 0 0 Z " fill="#575656" transform="translate(451,643)"/>
<path d="M0 0 C3 -0.375 3 -0.375 6 0 C8.22264871 3.33397306 8.29675463 4.59514891 8.3125 8.5 C8.32925781 9.4590625 8.34601562 10.418125 8.36328125 11.40625 C8 14 8 14 6.640625 15.8515625 C5 17 5 17 2.4375 16.875 C0 16 0 16 -2 13 C-2.265625 10.625 -2.265625 10.625 -2.25 8 C-2.25515625 7.13375 -2.2603125 6.2675 -2.265625 5.375 C-2 3 -2 3 0 0 Z " fill="#D4D3D2" transform="translate(561,919)"/>
<path d="M0 0 C1.423125 -0.061875 2.84625 -0.12375 4.3125 -0.1875 C5.51326172 -0.23970703 5.51326172 -0.23970703 6.73828125 -0.29296875 C9 0 9 0 10.77734375 1.359375 C12.49441438 3.66343143 12.27480564 5.18324217 12 8 C11.814375 8.680625 11.62875 9.36125 11.4375 10.0625 C10.91957523 12.35616685 11.2883622 13.78601575 12 16 C11.01 16 10.02 16 9 16 C8.34 14.02 7.68 12.04 7 10 C5.68 10 4.36 10 3 10 C3 11.98 3 13.96 3 16 C2.01 16 1.02 16 0 16 C0 10.72 0 5.44 0 0 Z " fill="#C2C2C3" transform="translate(391,919)"/>
<path d="M0 0 C2.27898863 1.80747374 2.89083092 3.27442501 3.3203125 6.12890625 C3.51124371 9.99208099 3.47390865 12.28036094 1.3125 15.5625 C-1.37484955 17.23301458 -2.89156165 17.34538204 -6 17 C-6.33 15.68 -6.66 14.36 -7 13 C-5.02 13 -3.04 13 -1 13 C-0.67 12.34 -0.34 11.68 0 11 C-1.423125 11.0928125 -1.423125 11.0928125 -2.875 11.1875 C-3.90625 11.125625 -4.9375 11.06375 -6 11 C-8 8 -8 8 -7.75 4.375 C-7.5025 3.26125 -7.255 2.1475 -7 1 C-4.4254716 -0.2872642 -2.85291355 -0.34791629 0 0 Z " fill="#C9CACB" transform="translate(648,919)"/>
<path d="M0 0 C8.625 -0.25 8.625 -0.25 12 2 C12.3125 5 12.3125 5 12 8 C10 10 10 10 6.375 10.125 C5.26125 10.08375 4.1475 10.0425 3 10 C3 12.31 3 14.62 3 17 C2.01 17 1.02 17 0 17 C0 11.39 0 5.78 0 0 Z " fill="#CDCCCD" transform="translate(659,919)"/>
<path d="M0 0 C21.45 0 42.9 0 65 0 C65 0.33 65 0.66 65 1 C63.83821983 1.0154612 63.83821983 1.0154612 62.65296936 1.03123474 C55.36871079 1.12904297 48.08454054 1.23153311 40.80042362 1.33933926 C37.05521202 1.39460231 33.30999266 1.44802755 29.56469727 1.49731445 C25.95311414 1.54490835 22.34162868 1.59724906 18.73016167 1.65294075 C17.34942481 1.67338694 15.96866114 1.69209622 14.58787727 1.70907402 C12.66016686 1.7330678 10.73254251 1.76370264 8.80493164 1.79467773 C7.15612755 1.81799416 7.15612755 1.81799416 5.47401428 1.84178162 C3.05693927 1.72288192 3.05693927 1.72288192 2 3 C1.87649342 4.90160112 1.82206557 6.8077239 1.79467773 8.71313477 C1.77473251 9.9343251 1.75478729 11.15551544 1.73423767 12.41371155 C1.71725209 13.75627513 1.70037333 15.09884007 1.68359375 16.44140625 C1.66303053 17.80761861 1.64203423 19.17382451 1.62062073 20.5400238 C1.56533465 24.14194524 1.51595437 27.74392471 1.46777344 31.34594727 C1.41760597 35.01909572 1.36189515 38.69215955 1.30664062 42.36523438 C1.19897918 49.57675132 1.09755213 56.78833847 1 64 C0.67 64 0.34 64 0 64 C0 42.88 0 21.76 0 0 Z " fill="#31312F" transform="translate(352,532)"/>
<path d="M0 0 C20.46 0 40.92 0 62 0 C62 0.33 62 0.66 62 1 C60.89459618 1.0154612 60.89459618 1.0154612 59.76686096 1.03123474 C52.83578924 1.12904643 45.90480098 1.23153716 38.97387791 1.33933926 C35.41027032 1.39460027 31.84665457 1.44802518 28.28295898 1.49731445 C24.18984755 1.55400532 20.0968939 1.61857318 16.00390625 1.68359375 C14.07581871 1.70866249 14.07581871 1.70866249 12.10877991 1.73423767 C10.92763107 1.75418289 9.74648224 1.77412811 8.52954102 1.79467773 C7.48363297 1.81022202 6.43772491 1.8257663 5.36012268 1.84178162 C3.04359303 1.73699824 3.04359303 1.73699824 2 3 C1.90646837 4.68801985 1.88255209 6.37995207 1.88647461 8.07055664 C1.88655014 9.15160172 1.88662567 10.23264679 1.88670349 11.34645081 C1.89186478 12.5224736 1.89702606 13.6984964 1.90234375 14.91015625 C1.9037587 16.10732773 1.90517365 17.30449921 1.90663147 18.53794861 C1.91225021 22.37949066 1.92480589 26.22097543 1.9375 30.0625 C1.94251259 32.65950437 1.94707591 35.25650965 1.95117188 37.85351562 C1.96222573 44.23569679 1.97898208 50.6178443 2 57 C1.34 57 0.68 57 0 57 C0 38.19 0 19.38 0 0 Z " fill="#2F2F2E" transform="translate(352,426)"/>
<path d="M0 0 C1.828125 0.06640625 1.828125 0.06640625 4 1 C5.13273936 3.35788641 5.97142521 5.46711646 6.75 7.9375 C6.97042969 8.58396484 7.19085938 9.23042969 7.41796875 9.89648438 C9 14.6278387 9 14.6278387 9 17 C7.68 16.67 6.36 16.34 5 16 C5 15.01 5 14.02 5 13 C2.69 13 0.38 13 -2 13 C-2.33 14.32 -2.66 15.64 -3 17 C-3.66 17 -4.32 17 -5 17 C-4.35083537 10.99522721 -2.14204997 5.599219 0 0 Z " fill="#D2D1D1" transform="translate(425,919)"/>
<path d="M0 0 C0.99 0 1.98 0 3 0 C3.8394882 2.10171867 4.67139656 4.20646625 5.5 6.3125 C5.9640625 7.48425781 6.428125 8.65601563 6.90625 9.86328125 C8 13 8 13 8 16 C7.01 16 6.02 16 5 16 C4.67 15.01 4.34 14.02 4 13 C1.03 12.505 1.03 12.505 -2 12 C-2.33 13.65 -2.66 15.3 -3 17 C-3.99 17 -4.98 17 -6 17 C-4.33846988 11.14340094 -2.52958084 5.5409866 0 0 Z " fill="#D0CFD1" transform="translate(353,919)"/>
<path d="M0 0 C3.0625 0.25 3.0625 0.25 6.0625 2.25 C6.0625 3.24 6.0625 4.23 6.0625 5.25 C3.4225 4.59 0.7825 3.93 -1.9375 3.25 C-1.6075 4.24 -1.2775 5.23 -0.9375 6.25 C2.56544871 7.96567661 2.56544871 7.96567661 6.0625 9.25 C6.25 12.125 6.25 12.125 6.0625 15.25 C2.59326119 17.56282587 1.14044425 17.67478586 -2.9375 17.25 C-4.8125 15.875 -4.8125 15.875 -5.9375 14.25 C-5.9375 13.59 -5.9375 12.93 -5.9375 12.25 C-1.4825 13.24 -1.4825 13.24 3.0625 14.25 C2.34610801 10.96156462 2.34610801 10.96156462 -0.9375 9.625 C-1.9275 9.17125 -2.9175 8.7175 -3.9375 8.25 C-4.9375 7.25 -4.9375 7.25 -5.125 4.8125 C-4.84341366 0.9641533 -3.77398334 0.32119007 0 0 Z " fill="#D0D0D0" transform="translate(339.9375,918.75)"/>
<path d="M0 0 C1.828125 0.02734375 1.828125 0.02734375 4 1 C5.12666239 3.56463939 5.97668335 5.89480072 6.75 8.5625 C6.97042969 9.27341797 7.19085938 9.98433594 7.41796875 10.71679688 C7.96025164 12.4733219 8.48209014 14.23613485 9 16 C7.68 15.67 6.36 15.34 5 15 C5 14.01 5 13.02 5 12 C2.05908413 12.18415432 2.05908413 12.18415432 -1 13 C-2.43637698 14.95163118 -2.43637698 14.95163118 -3 17 C-3.66 17 -4.32 17 -5 17 C-3.83348574 11.07136283 -2.24480642 5.61201606 0 0 Z " fill="#D7D7D7" transform="translate(476,919)"/>
<path d="M0 0 C0.99 0 1.98 0 3 0 C4.98 3.63 6.96 7.26 9 11 C9.33 7.7 9.66 4.4 10 1 C10.66 1 11.32 1 12 1 C12 5.95 12 10.9 12 16 C8 15 8 15 6.515625 12.93359375 C5.34375 10.62239583 4.171875 8.31119792 3 6 C2.67 9.3 2.34 12.6 2 16 C1.34 16 0.68 16 0 16 C0 10.72 0 5.44 0 0 Z " fill="#DDDCDC" transform="translate(487,919)"/>
<path d="M0 0 C0.99 0 1.98 0 3 0 C3.33 4.29 3.66 8.58 4 13 C5.98 13 7.96 13 10 13 C10 9.04 10 5.08 10 1 C10.66 1 11.32 1 12 1 C12.0810206 3.10353495 12.13919907 5.20795952 12.1875 7.3125 C12.22230469 8.48425781 12.25710938 9.65601563 12.29296875 10.86328125 C12 14 12 14 10.67578125 15.89453125 C8.05917019 17.62064064 6.04692394 17.38086549 3 17 C1.32421875 15.92578125 1.32421875 15.92578125 0 14 C-0.29296875 10.64453125 -0.29296875 10.64453125 -0.1875 6.8125 C-0.16042969 5.54019531 -0.13335937 4.26789062 -0.10546875 2.95703125 C-0.07066406 1.98121094 -0.03585937 1.00539063 0 0 Z " fill="#CDCDCE" transform="translate(376,919)"/>
<path d="M0 0 C2.125 0.375 2.125 0.375 4 1 C3.34 2.32 2.68 3.64 2 5 C2.66 5 3.32 5 4 5 C4 4.34 4 3.68 4 3 C5.65 3 7.3 3 9 3 C8.55530671 8.03985731 6.28656638 10.37634988 3 14 C2.01 13.67 1.02 13.34 0 13 C0 13.66 0 14.32 0 15 C-0.66 14.67 -1.32 14.34 -2 14 C-2.05389087 12.04196493 -2.09274217 10.08351091 -2.125 8.125 C-2.14820313 7.03445313 -2.17140625 5.94390625 -2.1953125 4.8203125 C-2 2 -2 2 0 0 Z " fill="#5C5C5C" transform="translate(570,919)"/>
<path d="M0 0 C2.875 -0.125 2.875 -0.125 6 0 C8 2 8 2 8.375 4.8125 C7.92199358 8.66305455 6.6183364 10.21801758 4 13 C5.65 13.33 7.3 13.66 9 14 C9 14.99 9 15.98 9 17 C5.37 17 1.74 17 -2 17 C-1.03157038 13.12628152 -0.55797718 12.18609568 2 9.4375 C4.11833137 7.15112792 4.98917686 6.03246941 6 3 C4.35 3 2.7 3 1 3 C1 3.66 1 4.32 1 5 C0.01 5 -0.98 5 -2 5 C-1.34 3.35 -0.68 1.7 0 0 Z " fill="#DBDBDB" transform="translate(548,919)"/>
<path d="M0 0 C4.48766834 -0.363865 4.48766834 -0.363865 6.64453125 1.16796875 C8.49909066 3.67456346 8.3999268 5.40907669 8.375 8.5 C8.38273438 9.4590625 8.39046875 10.418125 8.3984375 11.40625 C8 14 8 14 6.70703125 15.86328125 C5 17 5 17 1.3125 16.6875 C0.219375 16.460625 -0.87375 16.23375 -2 16 C-2.33 14.68 -2.66 13.36 -3 12 C-2.01 12 -1.02 12 0 12 C0 12.66 0 13.32 0 14 C1.65 14 3.3 14 5 14 C4.73323796 12.01508358 4.73323796 12.01508358 4 10 C3.01 9.67 2.02 9.34 1 9 C1 8.34 1 7.68 1 7 C1.99 6.67 2.98 6.34 4 6 C4.33 5.01 4.66 4.02 5 3 C2.69 3.66 0.38 4.32 -2 5 C-2 4.01 -2 3.02 -2 2 C-1.34 2 -0.68 2 0 2 C0 1.34 0 0.68 0 0 Z " fill="#CAC9CA" transform="translate(511,919)"/>
<path d="M0 0 C2.31 0.33 4.62 0.66 7 1 C7.33 2.32 7.66 3.64 8 5 C5.69 4.67 3.38 4.34 1 4 C1 4.66 1 5.32 1 6 C2.65 6.33 4.3 6.66 6 7 C6 8.32 6 9.64 6 11 C4.35 10.67 2.7 10.34 1 10 C1.57344937 12.86724686 1.8614515 13.8614515 4 16 C1.625 16.1875 1.625 16.1875 -1 16 C-3.67548031 11.98677954 -3.58740465 8.71626345 -3 4 C-1.5 1.4375 -1.5 1.4375 0 0 Z " fill="#D6D5D6" transform="translate(587,919)"/>
<path d="M0 0 C1.32 0 2.64 0 4 0 C4 5.61 4 11.22 4 17 C0 16 0 16 -1.25 13.9375 C-1.4975 13.298125 -1.745 12.65875 -2 12 C-2.99 12 -3.98 12 -5 12 C-5 11.34 -5 10.68 -5 10 C-4.34 10 -3.68 10 -3 10 C-2.86722656 9.36191406 -2.73445312 8.72382812 -2.59765625 8.06640625 C-2.42105469 7.24011719 -2.24445312 6.41382813 -2.0625 5.5625 C-1.88847656 4.73878906 -1.71445312 3.91507813 -1.53515625 3.06640625 C-1 1 -1 1 0 0 Z " fill="#CACCCD" transform="translate(685,919)"/>
<path d="M0 0 C2.5625 0.1875 2.5625 0.1875 4.5625 2.1875 C4.9375 5.5625 4.9375 5.5625 4.5625 9.1875 C2.5625 11.625 2.5625 11.625 0.5625 13.1875 C2.2125 13.5175 3.8625 13.8475 5.5625 14.1875 C5.5625 15.1775 5.5625 16.1675 5.5625 17.1875 C2.2625 17.1875 -1.0375 17.1875 -4.4375 17.1875 C-3.29684018 12.62486073 -1.40744074 10.75142889 1.5625 7.1875 C2.41529338 4.97014561 2.41529338 4.97014561 2.5625 3.1875 C0.9125 3.1875 -0.7375 3.1875 -2.4375 3.1875 C-2.4375 3.8475 -2.4375 4.5075 -2.4375 5.1875 C-3.0975 5.1875 -3.7575 5.1875 -4.4375 5.1875 C-3.32386364 0.25568182 -3.32386364 0.25568182 0 0 Z " fill="#CFCECE" transform="translate(576.4375,918.8125)"/>
<path d="M0 0 C17.16 0.99 34.32 1.98 52 3 C52 3.33 52 3.66 52 4 C46.80795648 4.04996785 41.61605731 4.08598438 36.42382812 4.10986328 C34.66273557 4.11983294 32.90165917 4.13341356 31.140625 4.15087891 C9.96840626 4.35538329 9.96840626 4.35538329 2 2 C1.34 1.34 0.68 0.68 0 0 Z " fill="#8B8B8B" transform="translate(599,646)"/>
<path d="M0 0 C0.99 0 1.98 0 3 0 C3 4.62 3 9.24 3 14 C3.99 14 4.98 14 6 14 C6 14.99 6 15.98 6 17 C2.7 17 -0.6 17 -4 17 C-4 16.01 -4 15.02 -4 14 C-2.68 14 -1.36 14 0 14 C0 10.7 0 7.4 0 4 C-0.99 4 -1.98 4 -3 4 C-3 3.34 -3 2.68 -3 2 C-2.01 2 -1.02 2 0 2 C0 1.34 0 0.68 0 0 Z " fill="#CCCDCE" transform="translate(632,919)"/>
<path d="M0 0 C3.96 0 7.92 0 12 0 C12.33 0.99 12.66 1.98 13 3 C11.35 3 9.7 3 8 3 C8 7.62 8 12.24 8 17 C7.01 16.67 6.02 16.34 5 16 C5 11.71 5 7.42 5 3 C3.35 2.67 1.7 2.34 0 2 C0 1.34 0 0.68 0 0 Z " fill="#C3C3C4" transform="translate(361,919)"/>
<path d="M0 0 C3.63 0 7.26 0 11 0 C10.30056727 2.79773092 9.58110493 5.27223839 8.5625 7.9375 C8.29953125 8.62714844 8.0365625 9.31679688 7.765625 10.02734375 C6.86082659 12.35858456 5.94119684 14.68320778 5 17 C4.01 17 3.02 17 2 17 C2.28482368 15.58194169 2.57818144 14.16559621 2.875 12.75 C3.11863281 11.56664062 3.11863281 11.56664062 3.3671875 10.359375 C3.99150075 8.03168856 4.84838542 6.10968048 6 4 C4.02 3.34 2.04 2.68 0 2 C0 1.34 0 0.68 0 0 Z " fill="#B0B0AE" transform="translate(608,919)"/>
<path d="M0 0 C1.65 0 3.3 0 5 0 C7 2 7 2 7.25 4.9375 C7 8 7 8 5 11 C3.35 11 1.7 11 0 11 C0 7.37 0 3.74 0 0 Z " fill="#525151" transform="translate(409,922)"/>
<path d="M0 0 C-0.33 0.99 -0.66 1.98 -1 3 C-5.95 3 -10.9 3 -16 3 C-16 3.66 -16 4.32 -16 5 C-27.55 5 -39.1 5 -51 5 C-51 4.67 -51 4.34 -51 4 C-50.2565332 3.98541748 -49.51306641 3.97083496 -48.74707031 3.95581055 C-34.55768251 3.64644254 -20.68033591 3.05563668 -6.68359375 0.62109375 C-3 0 -3 0 0 0 Z " fill="#504F4F" transform="translate(451,643)"/>
<path d="M0 0 C0.99 0 1.98 0 3 0 C3.08076963 2.45898655 3.14037143 4.91533742 3.1875 7.375 C3.22520508 8.42300781 3.22520508 8.42300781 3.26367188 9.4921875 C3.29296875 11.5234375 3.29296875 11.5234375 3 15 C0 17 0 17 -2.6875 16.625 C-3.8321875 16.315625 -3.8321875 16.315625 -5 16 C-5.33 14.35 -5.66 12.7 -6 11 C-5.01 11.33 -4.02 11.66 -3 12 C-3 12.66 -3 13.32 -3 14 C-2.01 14 -1.02 14 0 14 C0 9.38 0 4.76 0 0 Z " fill="#CBCCCC" transform="translate(466,919)"/>
<path d="M0 0 C1.32 0 2.64 0 4 0 C6.14336161 3.4766338 6.21277626 6.21229195 6.125 10.25 C6.10695313 11.32765625 6.08890625 12.4053125 6.0703125 13.515625 C6.04710937 14.33546875 6.02390625 15.1553125 6 16 C6.99 16 7.98 16 9 16 C9 14.02 9 12.04 9 10 C10.32 10.33 11.64 10.66 13 11 C12.01 11.495 12.01 11.495 11 12 C10.34444881 14.52733235 10.34444881 14.52733235 10 17 C6.7 17 3.4 17 0 17 C0.99 15.515 0.99 15.515 2 14 C2.4603764 10.80193335 2.4603764 10.80193335 2.625 7.3125 C2.69976562 6.13300781 2.77453125 4.95351563 2.8515625 3.73828125 C2.90054687 2.83464844 2.94953125 1.93101562 3 1 C2.34 1 1.68 1 1 1 C1 4.96 1 8.92 1 13 C0.67 13 0.34 13 0 13 C0 8.71 0 4.42 0 0 Z " fill="#747574" transform="translate(385,919)"/>
<path d="M0 0 C0.99 0 1.98 0 3 0 C3.66 1.98 4.32 3.96 5 6 C7.0245738 4.06745228 8.42105792 2.36841312 10 0 C10.99 0 11.98 0 13 0 C12.05341663 2.62130781 11.23221815 4.72133822 9.4375 6.875 C7.46016536 9.79801642 7.33315406 12.53519775 7 16 C6.34 16 5.68 16 5 16 C4.89042969 15.39671875 4.78085937 14.7934375 4.66796875 14.171875 C3.77577738 9.67465023 3.0152704 6.56350139 0 3 C0 2.01 0 1.02 0 0 Z " fill="#D1D0D0" transform="translate(434,919)"/>
<path d="M0 0 C2.25 -0.25 2.25 -0.25 5 0 C7.3125 2 7.3125 2 9 4 C9.33 3.01 9.66 2.02 10 1 C10.99 1.33 11.98 1.66 13 2 C12.745504 3.48206495 12.47088238 4.96068615 12.1875 6.4375 C12.03667969 7.26121094 11.88585937 8.08492187 11.73046875 8.93359375 C11.48941406 9.61550781 11.24835938 10.29742188 11 11 C10.01 11.33 9.02 11.66 8 12 C8 10.02 8 8.04 8 6 C5.69 5.34 3.38 4.68 1 4 C0.67 2.68 0.34 1.36 0 0 Z " fill="#636362" transform="translate(338,922)"/>
<path d="M0 0 C0.33 0 0.66 0 1 0 C1 2.64 1 5.28 1 8 C1.66 8 2.32 8 3 8 C3.66 8.66 4.32 9.32 5 10 C7.65537372 10.56520003 10.29144713 10.73788198 13 11 C12.67 11.99 12.34 12.98 12 14 C9.03 13.505 9.03 13.505 6 13 C6 13.66 6 14.32 6 15 C5.34 15 4.68 15 4 15 C3.67 15.66 3.34 16.32 3 17 C3 16.01 3 15.02 3 14 C2.01 14 1.02 14 0 14 C0 9.38 0 4.76 0 0 Z " fill="#595958" transform="translate(635,919)"/>
<path d="M0 0 C0 4.62 0 9.24 0 14 C1.32 14 2.64 14 4 14 C4 14.66 4 15.32 4 16 C0.37 16 -3.26 16 -7 16 C-7 15.34 -7 14.68 -7 14 C-5.35 14 -3.7 14 -2 14 C-2 10.37 -2 6.74 -2 3 C-3.32 3.33 -4.64 3.66 -6 4 C-5.67 3.01 -5.34 2.02 -5 1 C-3 0 -3 0 0 0 Z " fill="#D9D9D9" transform="translate(528,920)"/>
<path d="M0 0 C0.33 0 0.66 0 1 0 C1 5.28 1 10.56 1 16 C1.66 16 2.32 16 3 16 C3 12.37 3 8.74 3 5 C3.66 5.66 4.32 6.32 5 7 C4.9765625 9.3828125 4.9765625 9.3828125 4.625 12.125 C4.45871094 13.49011719 4.45871094 13.49011719 4.2890625 14.8828125 C4.14597656 15.93082031 4.14597656 15.93082031 4 17 C1.03 17 -1.94 17 -5 17 C-4.67 16.34 -4.34 15.68 -4 15 C-3.34 15 -2.68 15 -2 15 C-2.66 12.69 -3.32 10.38 -4 8 C-2.68 8 -1.36 8 0 8 C0 5.36 0 2.72 0 0 Z " fill="#6F6F6E" transform="translate(486,919)"/>
<path d="M0 0 C0.33 0 0.66 0 1 0 C1 2.31 1 4.62 1 7 C3.64 7 6.28 7 9 7 C9.66 9.64 10.32 12.28 11 15 C10.01 15 9.02 15 8 15 C7.34 13.02 6.68 11.04 6 9 C4.68 9 3.36 9 2 9 C2 10.98 2 12.96 2 15 C1.34 15 0.68 15 0 15 C0 10.05 0 5.1 0 0 Z " fill="#D9D9DA" transform="translate(392,920)"/>
<path d="M0 0 C1.32 0.33 2.64 0.66 4 1 C4.84454356 4.37817425 5.10844919 6.67465243 4 10 C1.69 10 -0.62 10 -3 10 C-2.01 6.7 -1.02 3.4 0 0 Z " fill="#B5B5B6" transform="translate(476,919)"/>
<path d="M0 0 C1.32 0 2.64 0 4 0 C3.67 1.32 3.34 2.64 3 4 C2.01 4 1.02 4 0 4 C0 4.66 0 5.32 0 6 C1.32 6.33 2.64 6.66 4 7 C4 8.32 4 9.64 4 11 C2.35 11 0.7 11 -1 11 C-1 10.34 -1 9.68 -1 9 C-2.32 9.33 -3.64 9.66 -5 10 C-5 9.34 -5 8.68 -5 8 C-4.34 8 -3.68 8 -3 8 C-3 7.34 -3 6.68 -3 6 C-2.34 6 -1.68 6 -1 6 C-1.020625 5.195625 -1.04125 4.39125 -1.0625 3.5625 C-1 1 -1 1 0 0 Z " fill="#595958" transform="translate(512,922)"/>
<path d="M0 0 C2.475 0.495 2.475 0.495 5 1 C5.125 8.75 5.125 8.75 4 11 C2.68 10.67 1.36 10.34 0 10 C0 6.7 0 3.4 0 0 Z " fill="#504F4F" transform="translate(562,922)"/>
<path d="M0 0 C0.66 0.99 1.32 1.98 2 3 C0.515 5.475 0.515 5.475 -1 8 C-2.65 7.67 -4.3 7.34 -6 7 C-6.33 5.02 -6.66 3.04 -7 1 C-4.46578263 -0.26710868 -2.80561762 -0.28056176 0 0 Z " fill="#B7B9BB" transform="translate(648,919)"/>
<path d="M0 0 C0.33 0 0.66 0 1 0 C1.125 5.75 1.125 5.75 0 8 C0.66 8 1.32 8 2 8 C2 5.69 2 3.38 2 1 C2.33 1 2.66 1 3 1 C3.06058594 1.61488281 3.12117187 2.22976563 3.18359375 2.86328125 C3.26738281 3.67152344 3.35117187 4.47976563 3.4375 5.3125 C3.51871094 6.11300781 3.59992187 6.91351562 3.68359375 7.73828125 C3.95265693 10.16087179 3.95265693 10.16087179 5 13 C3.68 13.33 2.36 13.66 1 14 C1 13.01 1 12.02 1 11 C-0.98 11 -2.96 11 -5 11 C-4.319375 9.948125 -4.319375 9.948125 -3.625 8.875 C-1.98313057 5.97015409 -0.96322901 3.1860652 0 0 Z " fill="#60605E" transform="translate(556,922)"/>
<path d="M0 0 C0.99 0 1.98 0 3 0 C3.67260351 1.76858691 4.33788395 3.53996016 5 5.3125 C5.37125 6.29863281 5.7425 7.28476562 6.125 8.30078125 C7 11 7 11 7 14 C6.01 14 5.02 14 4 14 C3.67 13.01 3.34 12.02 3 11 C0.98491642 10.26676204 0.98491642 10.26676204 -1 10 C-1 9.34 -1 8.68 -1 8 C-0.01 8 0.98 8 2 8 C1.34 5.36 0.68 2.72 0 0 Z " fill="#D8D7D8" transform="translate(354,921)"/>
<path d="M0 0 C0.99 0.99 1.98 1.98 3 3 C3.66 2.67 4.32 2.34 5 2 C5.99 5.3 6.98 8.6 8 12 C6.68 11.67 5.36 11.34 4 11 C4 10.01 4 9.02 4 8 C2.02 8 0.04 8 -2 8 C-1.01 7.34 -0.02 6.68 1 6 C0.34 5.67 -0.32 5.34 -1 5 C-0.67 3.35 -0.34 1.7 0 0 Z " fill="#A8A8A6" transform="translate(426,924)"/>
<path d="M0 0 C0.33 0 0.66 0 1 0 C1 5.61 1 11.22 1 17 C-0.98 17 -2.96 17 -5 17 C-4.01 16.67 -3.02 16.34 -2 16 C-2.350625 15.4225 -2.70125 14.845 -3.0625 14.25 C-4.61433467 10.52559678 -2.82680341 7.37426977 -1.4375 3.75 C-1.16808594 3.04359375 -0.89867187 2.3371875 -0.62109375 1.609375 C-0.41613281 1.07828125 -0.21117187 0.5471875 0 0 Z " fill="#646463" transform="translate(405,919)"/>
<path d="M0 0 C0.78375 0.185625 1.5675 0.37125 2.375 0.5625 C4.97089775 1.25962266 4.97089775 1.25962266 7 0 C6.25 5.75 6.25 5.75 4 8 C1.375 8.125 1.375 8.125 -1 8 C-0.34 7.34 0.32 6.68 1 6 C0.34 5.34 -0.32 4.68 -1 4 C-0.625 1.875 -0.625 1.875 0 0 Z " fill="#BEBEBE" transform="translate(588,928)"/>
<path d="M0 0 C2.32472205 2.85306797 3.7508258 5.54074837 5 9 C3.35 9 1.7 9 0 9 C-0.33 10.32 -0.66 11.64 -1 13 C-1.99 9.7 -2.98 6.4 -4 3 C-2.68 3 -1.36 3 0 3 C0 2.01 0 1.02 0 0 Z " fill="#575655" transform="translate(433,919)"/>
<path d="M0 0 C1.45742463 -0.08096803 2.91612807 -0.13917774 4.375 -0.1875 C5.18710937 -0.22230469 5.99921875 -0.25710938 6.8359375 -0.29296875 C7.55007813 -0.19628906 8.26421875 -0.09960938 9 0 C9.66 0.99 10.32 1.98 11 3 C8 4 8 4 3 3 C3 6.63 3 10.26 3 14 C2.67 14 2.34 14 2 14 C1.93941406 13.24074219 1.87882812 12.48148438 1.81640625 11.69921875 C1.73261719 10.70535156 1.64882813 9.71148438 1.5625 8.6875 C1.48128906 7.70136719 1.40007812 6.71523438 1.31640625 5.69921875 C1.08187441 2.90624401 1.08187441 2.90624401 0 0 Z " fill="#B4B5B4" transform="translate(406,919)"/>
<path d="M0 0 C0.66 0 1.32 0 2 0 C1.625 2.4375 1.625 2.4375 1 5 C-1.79870027 6.39935013 -3.90498792 6.25265405 -7 6 C-8.875 4.625 -8.875 4.625 -10 3 C-10 2.34 -10 1.68 -10 1 C-7.03 1.33 -4.06 1.66 -1 2 C-0.67 1.34 -0.34 0.68 0 0 Z " fill="#D5D5D6" transform="translate(344,930)"/>
<path d="M0 0 C2.7648665 -0.22417836 4.46277487 -0.32233508 6.875 1.125 C8.55290631 3.92151052 7.74875648 5.93690532 7 9 C6.67 8.34 6.34 7.68 6 7 C5.34 6.67 4.68 6.34 4 6 C4.33 5.01 4.66 4.02 5 3 C2.69 3.66 0.38 4.32 -2 5 C-2 4.01 -2 3.02 -2 2 C-1.34 2 -0.68 2 0 2 C0 1.34 0 0.68 0 0 Z " fill="#C9C8C8" transform="translate(511,919)"/>
<path d="M0 0 C2.125 0.375 2.125 0.375 4 1 C3.34 2.65 2.68 4.3 2 6 C1.34 6 0.68 6 0 6 C0 7.98 0 9.96 0 12 C0.99 11.67 1.98 11.34 3 11 C3 11.99 3 12.98 3 14 C2.01 13.67 1.02 13.34 0 13 C0 13.66 0 14.32 0 15 C-0.66 14.67 -1.32 14.34 -2 14 C-2.05389087 12.04196493 -2.09274217 10.08351091 -2.125 8.125 C-2.14820313 7.03445313 -2.17140625 5.94390625 -2.1953125 4.8203125 C-2 2 -2 2 0 0 Z " fill="#5E5D5D" transform="translate(570,919)"/>
<path d="M0 0 C3.0625 0.25 3.0625 0.25 6.0625 2.25 C6.0625 3.24 6.0625 4.23 6.0625 5.25 C3.4225 4.59 0.7825 3.93 -1.9375 3.25 C-2.2675 4.24 -2.5975 5.23 -2.9375 6.25 C-3.5975 4.93 -4.2575 3.61 -4.9375 2.25 C-2.9375 0.25 -2.9375 0.25 0 0 Z " fill="#C1C2C2" transform="translate(339.9375,918.75)"/>
<path d="M0 0 C-0.33 0.99 -0.66 1.98 -1 3 C-11.89 3.495 -11.89 3.495 -23 4 C-18.88585821 1.94292911 -15.41749442 1.36695258 -10.9375 0.875 C-10.21755859 0.78863281 -9.49761719 0.70226562 -8.75585938 0.61328125 C-5.81942849 0.26974338 -2.95875793 0 0 0 Z " fill="#8E8D8D" transform="translate(451,643)"/>
<path d="M0 0 C1.65 0 3.3 0 5 0 C5.38218767 1.65614657 5.71395102 3.32457024 6 5 C5 6 5 6 2.4375 6.0625 C1.2309375 6.0315625 1.2309375 6.0315625 0 6 C0 4.02 0 2.04 0 0 Z " fill="#5E5E5D" transform="translate(394,921)"/>
<path d="M0 0 C1.65 0 3.3 0 5 0 C5.38218767 1.65614657 5.71395102 3.32457024 6 5 C5 6 5 6 2.4375 6.0625 C1.2309375 6.0315625 1.2309375 6.0315625 0 6 C0 4.02 0 2.04 0 0 Z " fill="#626061" transform="translate(662,921)"/>
<path d="M0 0 C0.33 0 0.66 0 1 0 C1.33 2.97 1.66 5.94 2 9 C2.99 9.33 3.98 9.66 5 10 C5.33 9.34 5.66 8.68 6 8 C6.33 9.32 6.66 10.64 7 12 C5.02 12.33 3.04 12.66 1 13 C-0.9078584 9.8250906 -1.1609041 7.89414789 -0.625 4.25 C-0.51414062 3.45078125 -0.40328125 2.6515625 -0.2890625 1.828125 C-0.19367187 1.22484375 -0.09828125 0.6215625 0 0 Z " fill="#C3C3C1" transform="translate(561,923)"/>
<path d="M0 0 C3.96 1.98 3.96 1.98 8 4 C8 4.99 8 5.98 8 7 C4.85375007 7.26218749 3.38162983 7.24754367 0.6875 5.5 C0.130625 5.005 -0.42625 4.51 -1 4 C-0.67 2.68 -0.34 1.36 0 0 Z " fill="#5A5A59" transform="translate(335,926)"/>
<path d="M0 0 C0.99 1.485 0.99 1.485 2 3 C2.66 2.67 3.32 2.34 4 2 C4.66 2.66 5.32 3.32 6 4 C5.34 5.98 4.68 7.96 4 10 C3.67 9.34 3.34 8.68 3 8 C2.34 8 1.68 8 1 8 C0.67 8.99 0.34 9.98 0 11 C0 7.37 0 3.74 0 0 Z " fill="#696868" transform="translate(469,920)"/>
<path d="M0 0 C2.31 0.33 4.62 0.66 7 1 C7.33 2.32 7.66 3.64 8 5 C6.906875 4.814375 5.81375 4.62875 4.6875 4.4375 C1.06375867 3.7421932 1.06375867 3.7421932 -2 5 C-1.34 3.35 -0.68 1.7 0 0 Z " fill="#C2C1C2" transform="translate(587,919)"/>
<path d="M0 0 C0.99 0 1.98 0 3 0 C3.33 0.66 3.66 1.32 4 2 C6.52733235 2.65555119 6.52733235 2.65555119 9 3 C9 4.32 9 5.64 9 7 C6.03 6.01 3.06 5.02 0 4 C0 2.68 0 1.36 0 0 Z " fill="#CDCDCD" transform="translate(584,923)"/>
<path d="M0 0 C0.66 0 1.32 0 2 0 C2.66 1.65 3.32 3.3 4 5 C5.65 5 7.3 5 9 5 C9 5.66 9 6.32 9 7 C6.69 7.33 4.38 7.66 2 8 C-0.1519437 4.77208445 -0.20086443 3.71599191 0 0 Z " fill="#CACBCC" transform="translate(640,922)"/>
<path d="M0 0 C0.33 0.66 0.66 1.32 1 2 C-0.09966775 3.29549899 -1.20491801 4.58626071 -2.3125 5.875 C-2.92738281 6.59429687 -3.54226562 7.31359375 -4.17578125 8.0546875 C-6 10 -6 10 -9 12 C-8.52794881 7.75153925 -6.11122478 5.73180712 -3 3 C-2.34 3 -1.68 3 -1 3 C-0.67 2.01 -0.34 1.02 0 0 Z " fill="#3B3A3A" transform="translate(145,139)"/>
<path d="M0 0 C0.33 0.66 0.66 1.32 1 2 C3.31 2 5.62 2 8 2 C8 2.66 8 3.32 8 4 C4.37 4 0.74 4 -3 4 C-3 3.01 -3 2.02 -3 1 C-2.01 0.67 -1.02 0.34 0 0 Z " fill="#D2D3D0" transform="translate(549,932)"/>
<path d="M0 0 C0.33 1.32 0.66 2.64 1 4 C0.01 5.485 0.01 5.485 -1 7 C0.65 7.33 2.3 7.66 4 8 C4 8.33 4 8.66 4 9 C-2.625 9.25 -2.625 9.25 -6 7 C-4.02 4.69 -2.04 2.38 0 0 Z " fill="#BFBFBE" transform="translate(553,925)"/>
<path d="M0 0 C0.66 0.33 1.32 0.66 2 1 C2 3.97 2 6.94 2 10 C1.5875 9.360625 1.175 8.72125 0.75 8.0625 C-1.17810487 5.79009069 -2.11424181 5.39803561 -5 5 C-4.01 4.67 -3.02 4.34 -2 4 C-0.79117904 1.99983534 -0.79117904 1.99983534 0 0 Z M-2 7 C0 8 0 8 0 8 Z " fill="#B8B9BA" transform="translate(649,922)"/>
<path d="M0 0 C3.63 0 7.26 0 11 0 C10.67 1.32 10.34 2.64 10 4 C9.34 4 8.68 4 8 4 C8 3.34 8 2.68 8 2 C5.36 2 2.72 2 0 2 C0 1.34 0 0.68 0 0 Z " fill="#CECECE" transform="translate(608,919)"/>
<path d="M0 0 C0.99 0 1.98 0 3 0 C3 3.3 3 6.6 3 10 C2.01 8.68 1.02 7.36 0 6 C-0.99 6 -1.98 6 -3 6 C-3 5.34 -3 4.68 -3 4 C-2.34 4 -1.68 4 -1 4 C-0.67 2.68 -0.34 1.36 0 0 Z " fill="#A5A6A6" transform="translate(683,925)"/>
<path d="M0 0 C-1.32 0.33 -2.64 0.66 -4 1 C-4.33 4.3 -4.66 7.6 -5 11 C-5.66 10.34 -6.32 9.68 -7 9 C-7 7 -7 5 -7 3 C-7.66 2.34 -8.32 1.68 -9 1 C-5.92677456 0.08941469 -3.19902639 -0.08886184 0 0 Z " fill="#565556" transform="translate(677,918)"/>
<path d="M0 0 C0.99 0 1.98 0 3 0 C3 1.65 3 3.3 3 5 C2.34 5 1.68 5 1 5 C1 8.3 1 11.6 1 15 C0.67 15 0.34 15 0 15 C0 10.05 0 5.1 0 0 Z " fill="#E5E5E7" transform="translate(674,920)"/>
<path d="M0 0 C0.99 0 1.98 0 3 0 C3 0.66 3 1.32 3 2 C2.34 2 1.68 2 1 2 C1.66 4.64 2.32 7.28 3 10 C2.01 10 1.02 10 0 10 C-0.19412181 8.52168779 -0.38012131 7.04230684 -0.5625 5.5625 C-0.66691406 4.73878906 -0.77132813 3.91507813 -0.87890625 3.06640625 C-0.91886719 2.38449219 -0.95882813 1.70257812 -1 1 C-0.67 0.67 -0.34 0.34 0 0 Z " fill="#949696" transform="translate(353,919)"/>
<path d="M0 0 C1.2684375 0.12375 1.2684375 0.12375 2.5625 0.25 C3.2225 1.24 3.8825 2.23 4.5625 3.25 C2.2525 3.25 -0.0575 3.25 -2.4375 3.25 C-2.4375 3.91 -2.4375 4.57 -2.4375 5.25 C-3.0975 5.25 -3.7575 5.25 -4.4375 5.25 C-3.32911727 0.34144793 -3.32911727 0.34144793 0 0 Z " fill="#CACACA" transform="translate(576.4375,918.75)"/>
<path d="M0 0 C0.33 0 0.66 0 1 0 C1.125 2.875 1.125 2.875 1 6 C0.34 6.66 -0.32 7.32 -1 8 C-4.625 7.625 -4.625 7.625 -8 7 C-8 6.67 -8 6.34 -8 6 C-6.8553125 5.9071875 -6.8553125 5.9071875 -5.6875 5.8125 C-2.76885423 5.23675967 -2.76885423 5.23675967 -1.25 2.4375 C-0.8375 1.633125 -0.425 0.82875 0 0 Z " fill="#C7C7C8" transform="translate(670,921)"/>
<path d="M0 0 C2.375 -0.1875 2.375 -0.1875 5 0 C7 3 7 3 6.625 5.6875 C6.41875 6.450625 6.2125 7.21375 6 8 C5.7525 7.38125 5.505 6.7625 5.25 6.125 C3.79371361 3.64931313 2.62187494 3.04874998 0 2 C0 1.34 0 0.68 0 0 Z " fill="#D8D8D9" transform="translate(512,926)"/>
<path d="M0 0 C2.475 0.495 2.475 0.495 5 1 C4.67 2.32 4.34 3.64 4 5 C2.68 5 1.36 5 0 5 C0 3.35 0 1.7 0 0 Z " fill="#4F4F4F" transform="translate(643,922)"/>
<path d="M0 0 C0.66 0 1.32 0 2 0 C2 1.98 2 3.96 2 6 C0.68 6.33 -0.64 6.66 -2 7 C-1.125 1.125 -1.125 1.125 0 0 Z " fill="#BABAB8" transform="translate(612,929)"/>
<path d="M0 0 C0.66 0 1.32 0 2 0 C0.52307692 6.64615385 0.52307692 6.64615385 -2.125 8.4375 C-2.74375 8.623125 -3.3625 8.80875 -4 9 C-3.34 6.69 -2.68 4.38 -2 2 C-1.34 2 -0.68 2 0 2 C0 1.34 0 0.68 0 0 Z " fill="#616160" transform="translate(421,925)"/>
<path d="M0 0 C2.375 0.3125 2.375 0.3125 5 1 C5.66 1.99 6.32 2.98 7 4 C4.33333333 4 1.66666667 4 -1 4 C-0.67 2.68 -0.34 1.36 0 0 Z " fill="#5B5A5A" transform="translate(588,922)"/>
<path d="M0 0 C0.99 0 1.98 0 3 0 C3.66 2.31 4.32 4.62 5 7 C4.01 7.33 3.02 7.66 2 8 C1.34 5.36 0.68 2.72 0 0 Z " fill="#CBCBCD" transform="translate(354,921)"/>
<path d="M0 0 C1.98 0.495 1.98 0.495 4 1 C3.67 2.32 3.34 3.64 3 5 C1.68 4.67 0.36 4.34 -1 4 C-0.67 2.68 -0.34 1.36 0 0 Z " fill="#565656" transform="translate(588,928)"/>
<path d="M0 0 C1.38157895 4.14473684 1.38157895 4.14473684 0 7 C-3.0625 8.25 -3.0625 8.25 -6 9 C-4.02 6.03 -2.04 3.06 0 0 Z " fill="#6F706F" transform="translate(730,606)"/>
<path d="M0 0 C0.99 0.33 1.98 0.66 3 1 C3 1.99 3 2.98 3 4 C4.32 4.33 5.64 4.66 7 5 C5.35 5.33 3.7 5.66 2 6 C0 3 0 3 0 0 Z " fill="#C9CACA" transform="translate(460,930)"/>
<path d="M0 0 C1.98 0 3.96 0 6 0 C5.67 0.99 5.34 1.98 5 3 C3.68 3 2.36 3 1 3 C1 3.66 1 4.32 1 5 C0.01 5 -0.98 5 -2 5 C-1.34 3.35 -0.68 1.7 0 0 Z " fill="#B5B5B5" transform="translate(548,919)"/>
<path d="M0 0 C2.475 0.495 2.475 0.495 5 1 C5 3.64 5 6.28 5 9 C4.67 9 4.34 9 4 9 C4 7.02 4 5.04 4 3 C2.68 2.67 1.36 2.34 0 2 C0 1.34 0 0.68 0 0 Z " fill="#6D6C6A" transform="translate(562,922)"/>
<path d="M0 0 C1.65 0 3.3 0 5 0 C5 1.32 5 2.64 5 4 C3.35 3.67 1.7 3.34 0 3 C0 2.01 0 1.02 0 0 Z " fill="#525352" transform="translate(338,922)"/>
<path d="M0 0 C0.99 0.33 1.98 0.66 3 1 C2.67 2.65 2.34 4.3 2 6 C1.01 6 0.02 6 -1 6 C-0.67 4.02 -0.34 2.04 0 0 Z " fill="#AFB0B0" transform="translate(448,933)"/>
<path d="M0 0 C0.33 0 0.66 0 1 0 C1 2.64 1 5.28 1 8 C1.99 7.67 2.98 7.34 4 7 C4 7.99 4 8.98 4 10 C3.01 9.67 2.02 9.34 1 9 C1 9.66 1 10.32 1 11 C0.34 10.67 -0.32 10.34 -1 10 C-0.67 6.7 -0.34 3.4 0 0 Z " fill="#797977" transform="translate(569,923)"/>
<path d="M0 0 C0.66 0.33 1.32 0.66 2 1 C0.9375 2.5 0.9375 2.5 -1 4 C-4.6875 4.1875 -4.6875 4.1875 -8 4 C-5.31143836 2.20762558 -3.0466145 1.01553817 0 0 Z " fill="#767676" transform="translate(691,638)"/>
<path d="M0 0 C0 1.65 0 3.3 0 5 C-1.32 5 -2.64 5 -4 5 C-4 3.68 -4 2.36 -4 1 C-1 0 -1 0 0 0 Z " fill="#979898" transform="translate(626,931)"/>
<path d="M0 0 C2.2477975 2.05233685 3.0022242 3.00667261 4 6 C2.68 6 1.36 6 0 6 C0 4.02 0 2.04 0 0 Z " fill="#555554" transform="translate(490,926)"/>
<path d="M0 0 C1.32 1.65 2.64 3.3 4 5 C3.34 6.32 2.68 7.64 2 9 C0.14223235 5.86501708 -0.20140476 3.62528568 0 0 Z " fill="#CACACA" transform="translate(491,922)"/>
<path d="M0 0 C1.65 0 3.3 0 5 0 C4.67 0.99 4.34 1.98 4 3 C0.9375 4.1875 0.9375 4.1875 -2 5 C-2 4.01 -2 3.02 -2 2 C-1.34 2 -0.68 2 0 2 C0 1.34 0 0.68 0 0 Z " fill="#BABABB" transform="translate(511,919)"/>
<path d="M0 0 C0.99 0 1.98 0 3 0 C3.66 1.65 4.32 3.3 5 5 C4.01 5.33 3.02 5.66 2 6 C0 3 0 3 0 0 Z " fill="#BDBCBC" transform="translate(434,919)"/>
<path d="M0 0 C-2.90092502 1.93395001 -3.89674737 2.30131941 -7.1875 2.625 C-8.445625 2.74875 -9.70375 2.8725 -11 3 C-9.68 2.67 -8.36 2.34 -7 2 C-7 1.34 -7 0.68 -7 0 C-4.3333581 -1.33332095 -2.83319697 -0.67102033 0 0 Z " fill="#616061" transform="translate(431,480)"/>
</svg>
